<svg preserveAspectRatio="none" width="100%" height="100%" overflow="visible" style="display: block;" viewBox="0 0 37.0287 13.4048" fill="none" xmlns="http://www.w3.org/2000/svg">
<g id="Frame 108" filter="url(#filter0_n_675_969)">
<path id="Vector 160" d="M0 12.4798H0.948513C2.48115 12.4798 3.7236 11.2374 3.7236 9.70474V3.70011C3.7236 2.16748 4.96604 0.925027 6.49868 0.925027H7.40574" stroke="var(--stroke-0, #223A6E)" stroke-width="1.85005" stroke-linejoin="bevel"/>
<path id="Vector 161" d="M7.40574 12.4798H8.35426C9.88689 12.4798 11.1293 11.2374 11.1293 9.70474V3.70011C11.1293 2.16748 12.3718 0.925027 13.9044 0.925027H14.8115" stroke="var(--stroke-0, #223A6E)" stroke-width="1.85005" stroke-linejoin="bevel"/>
<path id="Vector 163" d="M14.8115 12.4798H15.76C17.2926 12.4798 18.5351 11.2374 18.5351 9.70474V3.70011C18.5351 2.16748 19.7775 0.925027 21.3102 0.925027H22.2172" stroke="var(--stroke-0, #223A6E)" stroke-width="1.85005" stroke-linejoin="bevel"/>
<path id="Vector 162" d="M22.2172 12.4798H23.1657C24.6984 12.4798 25.9408 11.2374 25.9408 9.70474V3.70011C25.9408 2.16748 27.1833 0.925027 28.7159 0.925027H29.623" stroke="var(--stroke-0, #223A6E)" stroke-width="1.85005" stroke-linejoin="bevel"/>
<path id="Vector 164" d="M29.623 12.4798H30.5715C32.1041 12.4798 33.3466 11.2374 33.3466 9.70474V3.70011C33.3466 2.16748 34.589 0.925027 36.1217 0.925027H37.0287" stroke="var(--stroke-0, #223A6E)" stroke-width="1.85005" stroke-linejoin="bevel"/>
</g>
<defs>
<filter id="filter0_n_675_969" x="0" y="0" width="37.0287" height="13.4048" filterUnits="userSpaceOnUse" color-interpolation-filters="sRGB">
<feFlood flood-opacity="0" result="BackgroundImageFix"/>
<feBlend mode="normal" in="SourceGraphic" in2="BackgroundImageFix" result="shape"/>
<feTurbulence type="fractalNoise" baseFrequency="0.24238765239715576 0.24238765239715576" stitchTiles="stitch" numOctaves="3" result="noise" seed="9558" />
<feColorMatrix in="noise" type="luminanceToAlpha" result="alphaNoise" />
<feComponentTransfer in="alphaNoise" result="coloredNoise1">
<feFuncA type="discrete" tableValues="0 0 0 0 0 0 0 0 0 0 0 0 0 0 0 0 0 0 0 1 1 1 1 1 1 1 1 1 1 1 1 0 0 0 0 0 0 0 0 0 0 0 0 0 0 0 0 0 0 0 0 0 0 0 0 0 0 0 0 0 0 0 0 0 0 0 0 0 0 0 0 0 0 0 0 0 0 0 0 0 0 0 0 0 0 0 0 0 0 0 0 0 0 0 0 0 0 0 0 0 "/>
</feComponentTransfer>
<feComposite operator="in" in2="shape" in="coloredNoise1" result="noise1Clipped" />
<feFlood flood-color="#334655" result="color1Flood" />
<feComposite operator="in" in2="noise1Clipped" in="color1Flood" result="color1" />
<feMerge result="effect1_noise_675_969">
<feMergeNode in="shape" />
<feMergeNode in="color1" />
</feMerge>
</filter>
</defs>
</svg>
