<svg preserveAspectRatio="none" width="100%" height="100%" overflow="visible" style="display: block;" viewBox="0 0 693.507 431.04" fill="none" xmlns="http://www.w3.org/2000/svg">
<g id="Group 135" filter="url(#filter0_n_770_3327)">
<path id="Vector 171" d="M2.28 395.591V35.4486C2.28 17.1301 17.1301 2.28008 35.4485 2.28008H190.082C198.507 2.28008 206.616 5.48599 212.763 11.247L404.906 191.318C418.889 204.423 418.889 226.617 404.906 239.721L212.763 419.793C206.616 425.554 198.507 428.76 190.082 428.76H35.4485C17.1301 428.76 2.28 413.91 2.28 395.591Z" stroke="var(--stroke-0, #B58052)" stroke-width="4.56" stroke-linejoin="bevel"/>
<path id="Vector 174" d="M265.057 395.591V35.4485C265.057 17.1301 279.907 2.28 298.226 2.28H452.859C461.284 2.28 469.393 5.48591 475.54 11.2469L667.683 191.318C681.666 204.423 681.666 226.617 667.683 239.721L475.54 419.793C469.393 425.554 461.284 428.76 452.859 428.76H298.226C279.907 428.76 265.057 413.91 265.057 395.591Z" stroke="var(--stroke-0, #B58052)" stroke-width="4.56" stroke-linejoin="bevel"/>
</g>
<defs>
<filter id="filter0_n_770_3327" x="0" y="0" width="680.45" height="431.04" filterUnits="userSpaceOnUse" color-interpolation-filters="sRGB">
<feFlood flood-opacity="0" result="BackgroundImageFix"/>
<feBlend mode="normal" in="SourceGraphic" in2="BackgroundImageFix" result="shape"/>
<feTurbulence type="fractalNoise" baseFrequency="0.17865067720413208 0.17865067720413208" stitchTiles="stitch" numOctaves="3" result="noise" seed="9558" />
<feColorMatrix in="noise" type="luminanceToAlpha" result="alphaNoise" />
<feComponentTransfer in="alphaNoise" result="coloredNoise1">
<feFuncA type="discrete" tableValues="0 0 0 0 0 0 0 0 0 0 0 0 0 0 0 0 0 1 1 1 1 1 1 1 1 1 1 1 1 1 1 1 1 0 0 0 0 0 0 0 0 0 0 0 0 0 0 0 0 0 0 0 0 0 0 0 0 0 0 0 0 0 0 0 0 0 0 0 0 0 0 0 0 0 0 0 0 0 0 0 0 0 0 0 0 0 0 0 0 0 0 0 0 0 0 0 0 0 0 0 "/>
</feComponentTransfer>
<feComposite operator="in" in2="shape" in="coloredNoise1" result="noise1Clipped" />
<feFlood flood-color="#103761" result="color1Flood" />
<feComposite operator="in" in2="noise1Clipped" in="color1Flood" result="color1" />
<feMerge result="effect1_noise_770_3327">
<feMergeNode in="shape" />
<feMergeNode in="color1" />
</feMerge>
</filter>
</defs>
</svg>
