<svg preserveAspectRatio="none" width="100%" height="100%" overflow="visible" style="display: block;" viewBox="0 0 8.49986 11.464" fill="none" xmlns="http://www.w3.org/2000/svg">
<g id="Group 24">
<path id="Subtract" fill-rule="evenodd" clip-rule="evenodd" d="M5.70025 1.04147C5.59323 0.559026 5.3414 -0.174737 6.24766 0.0376663C7.95762 0.438428 8.57401 3.29014 8.49274 4.32767C8.42781 5.15577 8.28845 5.91594 8.07171 6.61534C8.22398 6.7429 8.37378 6.95684 8.37378 7.27862C8.37377 7.51924 8.29575 7.80071 8.07304 8.02431C7.88823 8.20984 7.62641 8.33293 7.28875 8.37266C6.79191 9.19362 6.1418 9.91104 5.32953 10.5433C3.81552 11.7219 1.24728 11.9725 0.35036 10.0735C-0.169221 8.97348 -0.164812 7.71351 0.731391 6.93749C1.44916 6.316 2.38209 6.03034 3.28098 5.48575C3.24193 5.26582 3.25072 5.10061 3.26286 5.01486C3.28124 4.88511 3.37877 4.55605 3.65958 4.32484C3.80759 4.20298 4.00411 4.11103 4.25196 4.09364C4.41239 4.08239 4.58504 4.10313 4.7706 4.158C5.65408 2.99808 5.85579 1.74269 5.70025 1.04147ZM4.32444 4.64384C4.3238 4.64385 4.32317 4.64383 4.32253 4.64384C4.31331 4.64406 4.30438 4.64443 4.29579 4.64504C4.1866 4.6527 4.10853 4.69055 4.04773 4.7406C3.91093 4.85325 3.85378 5.03674 3.84656 5.08771C3.83266 5.18591 3.76985 6.00471 4.91723 6.91515C5.61426 7.46823 6.28051 7.83354 7.04208 7.83355C7.37571 7.83354 7.55 7.7397 7.64286 7.64649C7.74058 7.54838 7.78486 7.41402 7.78487 7.27856C7.78486 7.21475 7.77193 7.16399 7.75338 7.12401C7.70053 7.14313 7.6459 7.15468 7.59256 7.16136C7.40378 7.18499 7.14397 7.15886 6.79414 7.09194C6.29945 6.9973 5.73406 6.61097 5.09183 6.00398C4.78027 5.70952 4.57751 5.39315 4.50477 5.09902C4.46921 4.95524 4.46345 4.80246 4.50193 4.662C4.44552 4.65024 4.3959 4.64492 4.35252 4.64389C4.35213 4.64389 4.3518 4.64385 4.35142 4.64384C4.34214 4.64364 4.33315 4.64366 4.32444 4.64384Z" fill="var(--fill-0, #DEDAD0)"/>
</g>
</svg>
