<svg preserveAspectRatio="none" width="100%" height="100%" overflow="visible" style="display: block;" viewBox="0 0 27.6957 10.5565" fill="none" xmlns="http://www.w3.org/2000/svg">
<g id="Group 44">
<g id="Subtract" filter="url(#filter0_g_759_3043)">
<path d="M0.452296 0.0424393C0.568781 0.0332206 0.684623 0.0703845 0.774562 0.145955C0.864506 0.221807 0.922111 0.330129 0.932765 0.446736C0.970348 0.861793 1.12303 1.252 1.36929 1.59908C2.88026 3.47369 5.75472 4.05637 8.28433 4.56197C8.85884 4.66287 9.4826 4.73396 10.09 4.79439C11.8634 4.96504 13.654 5.02028 15.4259 4.98287C16.6458 4.95414 17.8665 4.86897 19.0382 4.67135C19.1538 4.65165 19.2685 4.63065 19.38 4.60885C21.6933 4.13095 24.1296 3.56598 25.9318 2.29537C26.2732 2.03662 26.5594 1.71124 26.6183 1.4526C26.6475 1.31939 26.7258 1.20077 26.839 1.12349C26.9526 1.04626 27.0924 1.01582 27.2267 1.04049C27.3608 1.0653 27.4801 1.14289 27.5587 1.25533C27.6373 1.36812 27.669 1.50784 27.6486 1.64303C27.5095 2.36998 27.0606 2.80748 26.6515 3.1733C24.5183 4.83251 22.0554 5.40206 19.6388 5.92428C19.5156 5.94869 19.39 5.97112 19.2638 5.99263C17.9847 6.20779 16.7073 6.2668 15.4416 6.27095C13.6037 6.27155 11.7828 6.12456 9.96792 5.90865C9.34198 5.83166 8.71521 5.74892 8.07925 5.62349C5.47429 5.00526 2.55252 4.53896 0.610499 2.12349C0.292411 1.65921 0.0805866 1.09407 0.0421398 0.519002C0.0338914 0.402251 0.0730698 0.286056 0.149562 0.196736C0.226284 0.107477 0.335606 0.0519753 0.452296 0.0424393Z" fill="var(--fill-0, #DEDAD0)"/>
</g>
<path id="Vector 11" d="M25.241 3.72792C25.5082 5.93461 25.0562 8.83431 20.7579 9.29324C17.6398 9.62614 15.4783 8.12377 13.8636 7.40207C12.5747 6.93112 12.1668 6.38117 8.35195 5.8196C10.1024 5.87895 16.8377 5.6425 19.0221 5.40928C20.7681 5.22286 22.7375 4.37803 25.241 3.72792Z" fill="var(--fill-0, #DEDAD0)"/>
<path id="Subtract_2" d="M24.3668 4.46778C24.4075 4.46931 24.4357 4.50274 24.4423 4.54287C24.6708 5.94625 24.1964 7.86301 21.0743 8.29593C18.7748 8.61479 17.2477 7.6632 16.3911 7.27147C15.9032 7.04831 14.7944 6.35289 14.1072 6.06144C14.0718 6.04646 14.0811 5.99034 14.1192 5.98818C16.6938 5.84233 18.6508 5.4616 19.9005 5.69464C20.2635 5.76233 20.7711 6.09207 20.9873 6.48242C21.0126 6.53019 21.0642 6.5693 21.1257 6.5923C21.1875 6.6152 21.2543 6.62014 21.3161 6.60486C21.378 6.58956 21.4312 6.5549 21.4687 6.50742C21.5059 6.46 21.5245 6.40354 21.5154 6.35173C21.5102 6.32474 21.5043 6.29764 21.4977 6.27061C21.4352 5.99813 21.3396 5.6952 21.0826 5.49423C20.9155 5.36366 21.0875 5.2704 21.726 5.13989C22.4028 5.00158 23.9649 4.45267 24.3668 4.46778Z" fill="var(--fill-0, #F28A48)"/>
</g>
<defs>
<filter id="filter0_g_759_3043" x="-1.65164e-09" y="1.39698e-09" width="27.6957" height="6.31201" filterUnits="userSpaceOnUse" color-interpolation-filters="sRGB">
<feFlood flood-opacity="0" result="BackgroundImageFix"/>
<feBlend mode="normal" in="SourceGraphic" in2="BackgroundImageFix" result="shape"/>
<feTurbulence type="fractalNoise" baseFrequency="6.0890717506408691 6.0890717506408691" numOctaves="3" seed="7190" />
<feDisplacementMap in="shape" scale="0.082114323973655701" xChannelSelector="R" yChannelSelector="G" result="displacedImage" width="100%" height="100%" />
<feMerge result="effect1_texture_759_3043">
<feMergeNode in="displacedImage"/>
</feMerge>
</filter>
</defs>
</svg>
