<svg preserveAspectRatio="none" width="100%" height="100%" overflow="visible" style="display: block;" viewBox="0 0 79.1955 56.4903" fill="none" xmlns="http://www.w3.org/2000/svg">
<g id="Group 124" opacity="0.15" filter="url(#filter0_g_759_3050)">
<path id="Vector 39" d="M4.40658 23.5102C6.14048 23.0774 5.65861 24.5723 5.45386 25.5552C5.11351 27.1891 5.66703 30.2998 8.04342 32.9073C10.2779 35.359 13.0272 35.785 14.9604 37.5676C16.675 39.1486 16.6834 41.7156 15.6893 43.9568C13.9733 47.8257 9.05981 47.3151 6.16321 44.914C2.46201 41.8459 0.519485 37.795 0.111236 32.2505C-0.0442481 30.1367 1.13507 24.3267 4.40658 23.5102Z" fill="var(--fill-0, white)"/>
<path id="Subtract" d="M51.8157 27.2218C51.2315 27.2976 50.6465 27.3663 50.0599 27.4298C49.2853 27.513 49.1356 27.7279 49.138 28.3341L49.1429 28.3371C49.16 32.8831 49.1775 37.4297 49.1946 41.9757C46.5487 42.3743 43.8851 42.6089 41.2171 42.6798C41.2146 38.0579 41.2098 33.4351 41.2073 28.8107C41.2073 28.1923 41.0556 27.9918 40.2757 27.9992C39.6864 28.0041 39.0944 28.0021 38.5052 27.9972C38.5052 26.0385 38.5047 24.0785 38.5071 22.1173C42.9455 22.154 47.3871 21.951 51.7913 21.506C51.7986 23.4109 51.8084 25.3169 51.8157 27.2218ZM30.7942 21.8087C32.9315 21.9628 35.074 22.0582 37.2161 22.0998C37.2088 28.952 37.202 35.8051 37.1946 42.6574C35.0304 42.5791 32.8705 42.3908 30.721 42.0949C30.7454 35.3331 30.7698 28.5705 30.7942 21.8087ZM64.2356 24.5275C63.5975 24.6962 62.9563 24.8573 62.3157 25.0138C60.6584 25.3981 60.6954 27.2885 62.3479 26.8634C62.7365 26.7608 63.1254 26.6575 63.514 26.5499C63.514 28.1223 63.5144 29.6954 63.5169 31.2677C63.1306 31.3948 62.7435 31.5171 62.3548 31.6369C60.705 32.1263 60.7125 34.0225 62.3577 33.4923L62.3597 33.4904C62.988 33.285 63.6122 33.0718 64.2356 32.8468V35.046C63.2662 35.5511 62.3422 36.0526 61.554 36.7794C60.8086 37.4669 60.3859 38.3407 60.2278 39.2931C57.9045 40.0791 55.5474 40.7315 53.1673 41.2453C53.1379 34.6204 53.1058 27.9951 53.0765 21.3703C56.8326 20.9496 60.5602 20.3554 64.2356 19.5851V24.5275ZM14.845 19.5851C16.9237 20.0204 19.0202 20.4019 21.1282 20.7248C23.415 21.1331 29.1781 21.0336 29.1585 27.4455C29.151 29.487 28.4567 30.8659 26.6692 31.4503C28.6867 32.6413 29.55 34.2948 29.5403 36.2609C29.5059 42.7949 23.3087 40.7803 21.0491 39.9953C20.2982 39.7707 19.5508 39.5298 18.806 39.2775C18.6458 38.3312 18.225 37.4631 17.4837 36.7794C16.7071 36.0634 15.7988 35.566 14.845 35.0685V19.5851ZM23.1673 33.3488C23.1722 32.0404 21.0838 31.5585 21.0813 32.8693L21.0794 32.8664C21.0769 33.5363 21.074 34.2071 21.0716 34.8771C21.0354 36.251 23.1498 36.6565 23.1575 35.3585C23.16 34.6887 23.1624 34.0186 23.1673 33.3488ZM22.9329 25.9552C22.9373 24.8991 21.1111 24.5596 21.1087 25.5988C21.1062 26.3885 21.1014 27.1762 21.0989 27.966C21.1239 28.912 22.9154 29.3372 22.9231 28.3253C22.9256 27.5356 22.9305 26.745 22.9329 25.9552ZM40.8099 0.097798C42.8637 0.0979317 44.3037 1.00721 44.3968 3.17104C44.6731 9.02302 44.9525 14.866 45.2337 20.6984C43.045 20.7938 40.8506 20.8351 38.6595 20.8205V17.2257C38.6593 15.9934 36.8867 15.9763 36.8841 17.2062L36.887 17.2042C36.887 18.4022 36.8846 19.5981 36.8821 20.796C34.7204 20.752 32.558 20.6547 30.4036 20.5031C30.6897 14.7342 30.9759 8.9473 31.262 3.14663C31.3575 0.999911 32.8273 0.0979596 34.8812 0.097798H40.8099ZM63.013 0.222798C63.6888 0.221846 64.2376 0.769631 64.2376 1.44545V18.4279C62.1761 18.8338 60.097 19.1891 58.0062 19.4923C58.0013 18.1865 57.9969 16.8802 57.9895 15.5744C57.9895 15.3005 57.666 15.2815 57.5804 15.5382C57.1257 16.5551 56.6737 17.5799 56.219 18.6115C55.9304 19.4547 55.1698 19.5528 54.8714 18.7706C54.4068 17.839 53.9444 16.8972 53.4798 15.9435C53.3917 15.6967 53.0687 15.78 53.0687 16.0636L53.0716 16.0656C53.0789 17.4128 53.0838 18.7608 53.0911 20.1056C50.9856 20.3281 48.8719 20.497 46.7542 20.6144C46.7322 13.8211 46.7127 7.0298 46.6907 0.23647C48.8916 0.23647 51.0933 0.236478 53.2942 0.231587C53.8322 2.12172 54.3671 3.99532 54.9026 5.84877C55.1104 6.31799 55.1993 6.56689 55.4925 6.55483C55.7857 6.54253 55.8717 6.28821 56.0745 5.80678C56.5929 3.92882 57.1142 2.0675 57.6351 0.228657C59.4276 0.228657 61.2204 0.225323 63.013 0.222798ZM21.1546 0.23354C23.4436 0.243322 29.1395 -0.443835 29.1126 6.00014C29.1051 8.04431 28.4225 9.47011 26.6546 10.2355C28.6475 11.2161 29.4967 12.813 29.4895 14.7765C29.46 21.2665 23.341 19.8738 21.0765 19.4972C18.9856 19.194 16.9065 18.8387 14.845 18.4328V1.45034C14.845 0.774555 15.3939 0.227038 16.0696 0.227681C17.7645 0.229652 19.4597 0.231569 21.1546 0.23354ZM23.1849 12.549C23.1896 11.2359 21.111 11.0549 21.1058 12.3703C21.1033 13.0401 21.1014 13.7107 21.0989 14.3781C21.0626 15.7518 23.1669 15.85 23.1751 14.5597C23.1775 13.8898 23.18 13.2189 23.1849 12.549ZM22.9524 5.19741C22.9568 4.13654 21.1403 4.06325 21.1351 5.10463C21.1326 5.8943 21.1277 6.68216 21.1253 7.47182C21.1502 8.40802 22.9373 8.57209 22.9427 7.56752C22.9451 6.77775 22.95 5.98718 22.9524 5.19741Z" fill="var(--fill-0, white)"/>
<g id="Group 11">
<path id="Subtract_2" fill-rule="evenodd" clip-rule="evenodd" d="M73.7418 25.5555C73.537 24.5726 73.055 23.0777 74.7889 23.5105C78.0604 24.327 79.2397 30.1369 79.0842 32.2507C78.96 33.9375 78.6935 35.4859 78.279 36.9106C78.5704 37.1704 78.8573 37.6064 78.8573 38.2622C78.8573 38.7525 78.708 39.3259 78.2819 39.7815C77.9283 40.1596 77.4272 40.4104 76.7809 40.4913C75.8303 42.164 74.5865 43.6259 73.0323 44.9142C70.1358 47.3153 65.2222 47.8259 63.5062 43.9571C62.5121 41.7159 62.5206 39.1488 64.2352 37.5678C65.6087 36.3013 67.3938 35.719 69.114 34.6089C69.0394 34.1612 69.0559 33.8247 69.0791 33.6502C69.1143 33.3858 69.3009 32.7155 69.8382 32.2445C70.1213 31.9962 70.4973 31.8087 70.9715 31.7733C71.2783 31.7504 71.6086 31.7926 71.9635 31.9044C73.6534 29.5414 74.0393 26.984 73.7418 25.5555ZM71.1217 32.8944C71.1148 32.8944 71.108 32.8944 71.1013 32.8946C71.0876 32.895 71.0744 32.8957 71.0615 32.8966C71.0595 32.8967 71.0574 32.8968 71.0554 32.8969C70.8466 32.9125 70.6971 32.9896 70.5808 33.0915C70.3191 33.321 70.2098 33.6948 70.196 33.7988C70.1951 33.805 70.1945 33.8127 70.1936 33.8218C70.1938 33.8216 70.1939 33.8212 70.1941 33.821C70.165 34.1001 70.1162 35.7231 72.2448 37.5218C73.5784 38.6486 74.8531 39.393 76.3101 39.393C76.9485 39.393 77.282 39.2018 77.4597 39.0118C77.6466 38.8119 77.7311 38.5382 77.7311 38.2622C77.7311 38.132 77.7062 38.0285 77.6705 37.947C77.5695 37.9859 77.4653 38.0099 77.3633 38.0235C77.0021 38.0716 76.5051 38.0183 75.8359 37.882C74.8894 37.6892 73.8076 36.9022 72.5789 35.6656C71.9828 35.0656 71.595 34.421 71.4558 33.8218C71.3878 33.5288 71.3767 33.2176 71.4503 32.9314C71.342 32.9074 71.2467 32.8966 71.1635 32.8946C71.1613 32.8945 71.1592 32.8944 71.1569 32.8944C71.1449 32.8942 71.1332 32.8942 71.1217 32.8944Z" fill="var(--fill-0, white)"/>
</g>
<path id="Subtract_3" d="M14.2277 38.3919C14.7375 39.1002 15.3156 39.7613 15.9494 40.3704C19.0654 43.3596 23.3872 45.0176 27.7804 45.8841C31.3188 46.5777 34.9735 46.7611 38.6291 46.6839C42.8443 46.5875 47.0348 46.2928 51.0392 45.5003C54.6961 44.7661 58.4037 43.967 61.3976 41.7669C61.8477 41.4354 62.2794 41.0781 62.6906 40.6966C63.3485 40.0863 63.9537 39.4122 64.5001 38.6849C64.9761 38.9995 65.4519 39.3146 65.9279 39.6292C65.4189 40.4991 64.829 41.3299 64.1662 42.1038C63.752 42.5876 63.3095 43.0497 62.8429 43.4876C61.8679 44.4071 60.7998 45.2255 59.6691 45.9417C59.684 45.9376 59.6991 45.9331 59.714 45.929C60.1559 49.8168 59.4228 55.5003 52.3117 56.3089C47.1529 56.8954 43.576 54.2484 40.9044 52.9769C38.7722 52.1471 37.6112 50.4545 31.3 49.4651C31.3402 49.4666 31.3823 49.4675 31.4259 49.469C30.0076 49.2805 28.5929 49.0374 27.1857 48.7298C22.4966 47.6899 17.7052 45.8631 14.0695 42.2972C13.3337 41.5707 12.6575 40.7759 12.0626 39.9222C12.784 39.4119 13.5063 38.9022 14.2277 38.3919ZM58.1125 46.5091C57.3568 46.5637 54.8833 47.6654 53.7863 47.9661C52.7236 48.2573 52.4424 48.4469 52.7355 48.6868C53.1876 49.0563 53.3777 49.6324 53.5089 50.1517C53.5226 50.203 53.5347 50.2546 53.546 50.306C53.5662 50.4048 53.5407 50.5143 53.4826 50.6077C53.4239 50.7013 53.3372 50.7716 53.2345 50.805C53.132 50.8381 53.0192 50.8331 52.9132 50.7933C52.8075 50.7531 52.7163 50.6811 52.6691 50.5911C52.2679 49.8554 51.3816 49.2546 50.7638 49.1478C48.6579 48.7838 45.4414 49.6189 41.1828 50.0667C41.0816 50.0773 41.059 50.2286 41.1515 50.2708C42.3429 50.8135 44.1855 52.0133 45.0031 52.3987C46.4829 53.0962 49.1457 54.8267 52.9884 54.0677C58.1776 53.0426 58.816 49.3654 58.3126 46.6888C58.293 46.5848 58.218 46.5015 58.1125 46.5091Z" fill="var(--fill-0, white)"/>
</g>
<defs>
<filter id="filter0_g_759_3050" x="1.83354e-09" y="0" width="79.1955" height="56.4903" filterUnits="userSpaceOnUse" color-interpolation-filters="sRGB">
<feFlood flood-opacity="0" result="BackgroundImageFix"/>
<feBlend mode="normal" in="SourceGraphic" in2="BackgroundImageFix" result="shape"/>
<feTurbulence type="fractalNoise" baseFrequency="2.5562896728515625 2.5562896728515625" numOctaves="3" seed="7190" />
<feDisplacementMap in="shape" scale="0.19559597969055176" xChannelSelector="R" yChannelSelector="G" result="displacedImage" width="100%" height="100%" />
<feMerge result="effect1_texture_759_3050">
<feMergeNode in="displacedImage"/>
</feMerge>
</filter>
</defs>
</svg>
