<svg preserveAspectRatio="none" width="100%" height="100%" overflow="visible" style="display: block;" viewBox="0 0 94.1724 47.9592" fill="none" xmlns="http://www.w3.org/2000/svg">
<g id="Vector 70" filter="url(#filter0_dn_675_894)">
<path d="M16.7092 38.9829C18.7677 40.2636 19.5392 39.1733 20.8471 36.6774C23.2894 44.9536 43.8988 45.3894 47.032 45.3894C50.1653 45.3894 67.7761 46.0996 73.2359 37.0024C73.8289 38.6112 75.7399 40.3747 77.0907 39.23C77.9143 40.9935 81.3079 43.3449 82.5598 41.2101C86.0193 46.6554 92.4768 44.9538 91.5208 38.9244C88.3389 25.0883 70.838 14.2403 62.9928 9.97545C59.5756 7.00416 55.0193 5.261 50.5896 4.94403C52.2771 3.75555 50.8427 2.09154 47.3833 2.09154C42.7004 2.09154 35.866 5.65718 30.7176 10.0179C14.6694 19.4369 3.87834 29.5704 2.27471 38.1612C0.808107 46.2314 8.52822 45.7894 11.4602 41.3506C13.004 43.1145 15.2425 41.7131 16.7092 38.9829Z" fill="var(--fill-0, #F28A48)"/>
<path d="M47.3833 1.04564C49.216 1.04564 50.7759 1.47624 51.646 2.32298C52.0948 2.75995 52.4104 3.37238 52.3286 4.08275C56.3846 4.68003 60.4278 6.39507 63.5874 9.10814C67.549 11.2671 73.9028 15.0664 79.6899 20.0701C85.3185 24.9366 90.5383 31.0506 92.3735 38.0134L92.5405 38.6902L92.5483 38.7253L92.5542 38.7605C92.8227 40.4545 92.5837 41.941 91.9194 43.1081C91.2521 44.2803 90.1902 45.0638 88.9575 45.3826C86.7818 45.945 84.278 45.0469 82.4086 42.781C82.0974 42.9503 81.7568 43.0528 81.3999 43.0896C80.6268 43.1691 79.8565 42.94 79.2055 42.6218C78.2623 42.1608 77.3374 41.3954 76.7026 40.571C76.4459 40.6322 76.1834 40.654 75.9204 40.6335C75.3036 40.5854 74.7443 40.3274 74.2836 40.0085C73.8666 39.7198 73.483 39.3476 73.1538 38.9343C69.9295 42.9237 64.4174 44.7657 59.4419 45.6374C53.8552 46.6163 48.5642 46.4353 47.0317 46.4353C45.4386 46.4353 39.4259 46.3252 33.4799 45.1628C30.5105 44.5823 27.4978 43.7287 25.0473 42.4587C23.3055 41.556 21.7679 40.3975 20.7661 38.9099C20.4574 39.365 20.1006 39.7977 19.6547 40.1062C19.1556 40.4514 18.5785 40.62 17.934 40.5544C17.656 40.5261 17.3817 40.4533 17.1088 40.3503C16.4005 41.4243 15.5385 42.3051 14.5835 42.7859C13.967 43.0962 13.2725 43.2581 12.5561 43.1404C12.2329 43.0872 11.9284 42.9781 11.643 42.824C9.91493 44.7738 7.30528 45.8457 5.05025 45.4792C3.71286 45.2619 2.49757 44.529 1.76216 43.1921C1.04394 41.8862 0.853279 40.133 1.24556 37.9743L1.24654 37.9695C2.10702 33.3597 5.38752 28.4916 10.3491 23.6511C15.3165 18.8049 22.0741 13.8843 30.1098 9.16185C32.7304 6.95187 35.7721 4.94432 38.7661 3.48021C41.7652 2.01359 44.8119 1.04564 47.3833 1.04564Z" stroke="url(#paint0_linear_675_894)" stroke-width="2.09154"/>
</g>
<defs>
<filter id="filter0_dn_675_894" x="0" y="0" width="94.1724" height="47.9592" filterUnits="userSpaceOnUse" color-interpolation-filters="sRGB">
<feFlood flood-opacity="0" result="BackgroundImageFix"/>
<feColorMatrix in="SourceAlpha" type="matrix" values="0 0 0 0 0 0 0 0 0 0 0 0 0 0 0 0 0 0 127 0" result="hardAlpha"/>
<feOffset dx="0.232393" dy="0.232393"/>
<feGaussianBlur stdDeviation="0.116197"/>
<feComposite in2="hardAlpha" operator="out"/>
<feColorMatrix type="matrix" values="0 0 0 0 0 0 0 0 0 0 0 0 0 0 0 0 0 0 0.43 0"/>
<feBlend mode="normal" in2="BackgroundImageFix" result="effect1_dropShadow_675_894"/>
<feBlend mode="normal" in="SourceGraphic" in2="BackgroundImageFix" result="shape"/>
<feTurbulence type="fractalNoise" baseFrequency="14.343512535095215 14.343512535095215" stitchTiles="stitch" numOctaves="3" result="noise" seed="3565" />
<feColorMatrix in="noise" type="luminanceToAlpha" result="alphaNoise" />
<feComponentTransfer in="alphaNoise" result="coloredNoise1">
<feFuncA type="discrete" tableValues="0 0 0 0 0 0 0 0 1 1 1 1 1 1 1 1 1 1 1 1 1 1 1 1 1 1 1 1 1 1 1 1 1 1 1 1 1 1 1 1 1 1 0 0 0 0 0 0 0 0 0 0 0 0 0 0 0 0 0 0 0 0 0 0 0 0 0 0 0 0 0 0 0 0 0 0 0 0 0 0 0 0 0 0 0 0 0 0 0 0 0 0 0 0 0 0 0 0 0 0 "/>
</feComponentTransfer>
<feComposite operator="in" in2="shape" in="coloredNoise1" result="noise1Clipped" />
<feFlood flood-color="rgba(0, 0, 0, 0.18)" result="color1Flood" />
<feComposite operator="in" in2="noise1Clipped" in="color1Flood" result="color1" />
<feMerge result="effect2_noise_675_894">
<feMergeNode in="shape" />
<feMergeNode in="color1" />
</feMerge>
<feBlend mode="normal" in="effect2_noise_675_894" in2="effect1_dropShadow_675_894" result="effect2_noise_675_894"/>
</filter>
<linearGradient id="paint0_linear_675_894" x1="46.8538" y1="2.09154" x2="46.8538" y2="45.4023" gradientUnits="userSpaceOnUse">
<stop stop-color="#B9B9B9"/>
<stop offset="0.158654" stop-color="#F7F7F7"/>
<stop offset="0.677885" stop-color="#A9A9A9"/>
<stop offset="0.846154" stop-color="white"/>
<stop offset="1" stop-color="#A9A9A9"/>
</linearGradient>
</defs>
</svg>
