<svg width="74" height="7" viewBox="0 0 74 7" fill="none" xmlns="http://www.w3.org/2000/svg">
<path d="M44.5581 0.000214948C44.8315 -0.00156695 45.1274 0.00787667 45.3743 0.0647972C45.485 0.0903716 45.7174 0.153184 45.9282 0.331588C46.0469 0.432061 46.175 0.582204 46.2508 0.791345C46.328 1.00457 46.3275 1.21341 46.2899 1.38774C46.2241 1.69248 46.0451 1.89348 45.9666 1.97608C45.8682 2.07963 45.7586 2.1674 45.6634 2.2369C45.4711 2.37736 45.2222 2.52727 44.9483 2.68278C43.7756 3.3485 42.605 3.97909 41.6278 4.51212C42.493 4.44952 43.5799 4.36375 44.9446 4.24796C50.9219 3.74085 62.102 2.6878 73.6297 1.60202L73.8173 3.59313C62.295 4.67839 51.1026 5.73298 45.1135 6.24109C42.1271 6.49446 40.4129 6.61481 39.4317 6.64119C38.9544 6.65402 38.5848 6.64703 38.3102 6.60363C38.1136 6.57256 37.4918 6.45747 37.2653 5.8209L37.0814 5.30538L37.4175 4.87313C37.66 4.56061 38.0671 4.27449 38.4314 4.04009C38.8351 3.78026 39.3438 3.48716 39.9103 3.17223C40.4489 2.87285 41.0357 2.55514 41.6596 2.21599C40.0353 2.37454 37.5671 2.63842 33.6887 3.05789C25.964 3.89338 13.0909 5.30118 0.217009 6.70919L-2.45548e-05 4.72055C12.8732 3.31261 25.7474 1.90499 33.4736 1.06934C41.1582 0.238204 43.4211 0.00764817 44.5581 0.000214948Z" fill="#489ADC"/>
</svg>
