<svg preserveAspectRatio="none" width="100%" height="100%" overflow="visible" style="display: block;" viewBox="0 0 20 20" fill="none" xmlns="http://www.w3.org/2000/svg">
<g id="shopping-cart" clip-path="url(#clip0_746_2949)">
<path id="Vector" d="M7.49962 18.3334C7.95985 18.3334 8.33295 17.9603 8.33295 17.5001C8.33295 17.0398 7.95985 16.6667 7.49962 16.6667C7.03938 16.6667 6.66628 17.0398 6.66628 17.5001C6.66628 17.9603 7.03938 18.3334 7.49962 18.3334Z" stroke="var(--stroke-0, #B9C7D6)" stroke-width="1.79753" stroke-linecap="round" stroke-linejoin="round"/>
<path id="Vector_2" d="M16.6664 18.3334C17.1267 18.3334 17.4998 17.9603 17.4998 17.5001C17.4998 17.0398 17.1267 16.6667 16.6664 16.6667C16.2062 16.6667 15.8331 17.0398 15.8331 17.5001C15.8331 17.9603 16.2062 18.3334 16.6664 18.3334Z" stroke="var(--stroke-0, #B9C7D6)" stroke-width="1.79753" stroke-linecap="round" stroke-linejoin="round"/>
<path id="Vector_3" d="M0.833339 0.83326H4.16667L6.4 11.9916C6.47621 12.3753 6.68493 12.7199 6.98963 12.9652C7.29432 13.2105 7.67559 13.3408 8.06667 13.3333H16.1667C16.5578 13.3408 16.939 13.2105 17.2437 12.9652C17.5484 12.7199 17.7571 12.3753 17.8333 11.9916L19.1667 4.99993H5.00001" stroke="var(--stroke-0, #B9C7D6)" stroke-width="1.79753" stroke-linecap="round" stroke-linejoin="round"/>
</g>
<defs>
<clipPath id="clip0_746_2949">
<rect width="20" height="20" fill="white"/>
</clipPath>
</defs>
</svg>
