<svg preserveAspectRatio="none" width="100%" height="100%" overflow="visible" style="display: block;" viewBox="0 0 32 32" fill="none" xmlns="http://www.w3.org/2000/svg">
<path id="Vector 215" opacity="0" d="M6.99987 6.78263C7.05426 6.77139 7.27466 6.74251 7.37007 6.72622C7.2661 6.76996 6.80419 6.82315 6.99987 6.78263ZM16.4698 3.30105C16.3915 3.32023 16.3131 3.33943 16.2346 3.35865C16.4614 3.3269 16.7632 3.27391 16.9722 3.24701C17.0063 3.24264 16.9211 3.27566 17.0017 3.26369C17.0824 3.25171 17.0628 3.22826 17.1792 3.20688C17.3085 3.18318 17.9188 3.10451 18.1257 3.07113C18.9062 2.94508 19.6944 2.80444 20.4752 2.69121C19.6746 2.83829 20.4855 2.72925 20.7134 2.68445C20.7626 2.67466 20.7512 2.62706 21.5589 2.51098C22.0779 2.43631 21.614 2.58074 22.4656 2.40988C21.8013 2.46615 22.4426 2.36759 22.9667 2.28259C23.0569 2.26795 23.7767 2.16089 24.0973 2.10775C24.2062 2.08967 24.3677 2.03811 24.5108 2.01467C24.6091 1.9986 24.689 2.00005 24.8371 1.97579C25.5255 1.86317 26.1997 1.75493 26.8949 1.64929C26.5009 1.77836 27.2164 1.62656 27.2474 1.62482C27.4143 1.61637 26.6736 1.73915 26.9689 1.70354C27.3749 1.63699 27.7939 1.56838 28.1994 1.50196C27.8617 1.54741 28.6391 1.37615 28.787 1.37445C28.709 1.32803 30.6718 1.12657 30.9592 1.06144C31.0184 1.04793 30.6174 1.08242 31.5473 0.948365C31.6468 0.934084 31.6124 0.957258 31.6656 0.947173C31.6977 0.941091 31.8841 0.855231 32.0924 0.853386C32.1699 0.852482 31.6939 0.964821 32.7443 0.783688C32.5692 0.788017 32.7819 0.744863 33.1077 0.69128C33.5983 0.610685 34.3364 0.506773 34.5394 0.483262C34.4661 0.487128 34.4009 0.489726 34.3309 0.493075C34.6702 0.460292 34.7361 0.430404 34.8114 0.419595C35.1155 0.375876 35.551 0.326917 35.836 0.280292C36.1795 0.224225 36.1611 0.191436 36.5657 0.141805C36.4715 0.148718 36.3728 0.156343 36.2796 0.163127C36.5582 0.121261 36.8179 0.0824272 37.098 0.040498C36.4681 0.186328 37.2378 0.0208328 37.2834 0.0127385C37.3622 -0.00129262 37.2518 0.0352713 37.3831 0.0123438C37.3964 0.0098784 37.3741 -0.00485459 37.5836 -0.0395918C38.013 -0.110754 37.9507 -0.0781243 38.1331 -0.106752C38.1493 -0.109382 38.0905 -0.116672 38.3999 -0.168563C39.3937 -0.334646 38.4029 -0.156559 38.3587 -0.147348C38.3068 -0.136246 38.6657 -0.123679 37.8115 -0.0150705C38.0955 -0.0515787 38.1327 -0.0270114 38.1639 -0.0311127C38.1906 -0.034691 38.6861 -0.115774 38.7115 -0.120704C38.9482 -0.167557 38.7357 -0.155435 38.7815 -0.166224C38.8196 -0.175184 39.4202 -0.240661 39.5498 -0.322645C39.8405 -0.309576 39.39 -0.246261 38.9173 -0.164464C38.8521 -0.142662 39.3717 -0.211177 39.4036 -0.216037C40.0775 -0.319187 39.6993 -0.308559 39.8421 -0.360575C39.9186 -0.388023 40.192 -0.397254 39.9366 -0.400861C40.5517 -0.498479 40.1816 -0.417876 40.2222 -0.42041C40.2825 -0.424204 40.4945 -0.468227 40.5232 -0.470886C40.5633 -0.474503 40.4273 -0.439464 40.5846 -0.457865C40.6108 -0.461027 40.8556 -0.522841 40.5324 -0.48658C40.9627 -0.547313 40.928 -0.563389 41.0788 -0.542347C41.3709 -0.667203 41.2985 -0.526066 41.4218 -0.53943C41.737 -0.572888 41.6355 -0.622438 41.652 -0.628C41.765 -0.665171 42.6345 -0.763641 42.8578 -0.799185C42.777 -0.743761 42.1609 -0.707204 42.0287 -0.679056C41.5795 -0.586773 42.6665 -0.743729 42.3474 -0.641595C42.4841 -0.676091 42.6196 -0.710021 42.7561 -0.743467C43.0182 -0.73841 42.6505 -0.679756 43.3434 -0.774112C43.4531 -0.819489 42.8534 -0.711811 42.9723 -0.750925C43.0428 -0.775236 43.4446 -0.824168 43.4523 -0.832034C43.4602 -0.842962 43.0936 -0.790297 43.15 -0.811032C43.2619 -0.865605 44.649 -0.949388 43.5986 -0.844097C43.8127 -0.865229 43.9569 -0.842123 44.1236 -0.84208C44.1834 -0.842097 44.2431 -0.844568 44.3139 -0.851645C44.402 -0.860591 44.1955 -0.878771 44.1568 -0.896991C44.137 -0.906292 44.1549 -0.917695 44.2755 -0.928338C44.3346 -0.933214 44.4213 -0.938741 44.5558 -0.936981C44.6243 -0.935584 44.7046 -0.93351 44.8217 -0.919344C44.8853 -0.910948 44.9531 -0.901655 45.0589 -0.87282C45.1626 -0.82824 45.3188 -0.845809 45.6318 -0.511801C45.6891 -0.441148 45.416 -0.74436 45.2153 -0.802706C45.0135 -0.883072 44.8787 -0.894414 44.7647 -0.908121C44.5412 -0.929276 44.3872 -0.924832 44.3759 -0.924714C44.3519 -0.921208 44.4726 -0.856843 44.4953 -0.852985C44.514 -0.84908 44.6056 -0.854658 44.8063 -0.833926C44.8612 -0.827338 44.9237 -0.818989 45.0101 -0.79771C45.1061 -0.765452 45.2158 -0.766308 45.4648 -0.565828C45.5825 -0.469649 45.7472 -0.238105 45.7741 0.0118743C45.804 0.252994 45.7424 0.422874 45.6994 0.524638C45.6047 0.728501 45.5299 0.797044 45.4708 0.865998C45.0354 1.29162 44.7526 1.4219 44.5574 1.54541C44.5279 1.56197 44.5027 1.57536 44.4828 1.58497C44.5981 1.55855 43.6288 2.12959 43.5301 2.2026C43.5042 2.22244 43.6197 2.17839 43.5915 2.19878C43.4146 2.32601 42.8925 2.59781 42.6605 2.73797C42.3999 2.8956 42.4442 2.89211 42.4294 2.90114C42.3141 2.97007 42.3985 2.9026 42.3287 2.94522C42.2238 3.00925 41.4984 3.44745 41.4655 3.47109C41.4555 3.47829 41.5856 3.42586 41.4299 3.52602C41.4031 3.5435 41.4056 3.50897 40.9491 3.80336C40.402 4.15756 41.3529 3.59465 41.1372 3.76127C40.7585 3.94609 40.7916 3.97388 40.6942 4.0304C40.6612 4.04965 40.3934 4.17508 40.1311 4.34527C40.3185 4.21893 40.5061 4.09482 40.6969 3.96985C40.5029 4.08262 40.1418 4.319 39.9866 4.41178C39.9102 4.45737 39.9575 4.39264 39.7963 4.49894C39.7634 4.52163 39.6636 4.66647 40.0696 4.36722C40.117 4.36591 39.907 4.4818 39.8177 4.54911C39.804 4.55947 39.773 4.62849 39.6422 4.68555C39.6175 4.6994 39.824 4.39579 39.137 4.99328C39.1156 5.01273 39.2049 4.96479 39.1842 4.98411C39.1667 4.99856 38.9917 5.12592 38.9794 5.14035C38.9631 5.15635 39.0494 5.1078 39.0302 5.12741C38.9301 5.229 38.7615 5.29111 38.9758 5.11553C38.8938 5.17167 38.8198 5.22673 38.7721 5.26493C38.8337 5.24964 38.756 5.32221 38.7624 5.3062L38.8552 4.46644C38.7833 4.28072 38.6058 4.13776 38.5319 4.10351C38.4483 4.0598 38.4199 4.05735 38.4034 4.05168C38.3511 4.04142 38.4645 4.05426 38.5153 4.05101C38.5791 4.05021 38.6282 4.04706 38.6645 4.04397C38.7357 4.03757 38.7543 4.0311 38.7431 4.02599C38.7198 4.01586 38.6113 4.00643 38.6864 3.99632C38.9439 3.95929 38.7422 4.05529 39.1487 4.00288C39.1856 3.99557 38.6837 4.00648 39.6652 3.94028C39.5227 3.95536 39.3747 3.97009 39.2291 3.98299C39.3195 4.02434 39.7522 3.93341 39.7908 3.92824C40.1839 3.88131 39.9157 3.92763 40.5012 3.83848C40.5572 3.82999 40.6648 3.8295 40.7801 3.81024C41.2443 3.73233 40.165 3.8665 40.1335 3.84873C40.1189 3.84307 41.2801 3.71154 41.3187 3.70973C41.4907 3.70905 40.7925 3.7815 40.929 3.78976C40.98 3.79498 42.6341 3.57115 42.9707 3.53512C43.3635 3.49521 43.5371 3.53678 43.5329 3.46472C43.654 3.52008 43.7416 3.45982 43.7901 3.45388C44.3123 3.3903 44.3713 3.38354 44.7232 3.33204C44.774 3.32456 44.8314 3.31607 44.8981 3.30617C45.0096 3.28963 45.1088 3.29785 45.1488 3.28879C45.1721 3.28342 45.1247 3.26669 45.2397 3.24395C45.3933 3.21355 46.3468 3.1072 46.4221 3.10953C46.4941 3.11249 46.0194 3.17025 46.1076 3.17923C46.4516 3.1343 46.7735 3.08485 47.1229 3.03886C47.2684 3.01976 47.1948 3.04466 47.2564 3.03646C47.2806 3.03333 47.7725 2.95229 47.752 2.94966C47.6973 2.94487 46.181 3.16221 46.5774 3.0818C46.652 3.06658 46.9296 3.06235 46.8807 3.02776C48.2498 2.84855 49.606 2.66837 50.9709 2.48578C50.1903 2.6265 49.3071 2.72259 48.4897 2.83921C48.3749 2.85556 47.9963 2.90417 48.0454 2.91822C48.7492 2.82596 49.6039 2.69566 50.2787 2.61458C50.3 2.61204 50.2245 2.64139 50.3046 2.63314C50.4524 2.61797 50.9441 2.5186 51.0229 2.51532C51.0373 2.51513 50.7646 2.57821 50.8509 2.58179C51.0718 2.59109 51.1135 2.49585 51.3002 2.47062C51.4471 2.45085 52.4204 2.35674 52.658 2.2958C52.9112 2.23092 51.9399 2.38036 52.009 2.34678C52.668 2.22988 53.3314 2.1615 53.9515 2.07057C53.9625 2.06894 53.8645 2.06419 54.0033 2.0419C54.2463 2.00288 54.3107 2.02018 54.4283 2.00771C54.5541 1.99437 55.0024 1.92688 55.0647 1.92767C55.0725 1.92781 54.9848 1.96652 54.971 1.96921C54.7764 2.00768 54.7027 1.9841 54.6849 1.9862C54.618 1.9944 54.5545 2.01647 54.4939 2.0243C54.3941 2.03718 54.3377 2.03311 54.2067 2.05064C54.1145 2.06294 54.2065 2.07305 54.1178 2.08459C54.0848 2.08879 53.7286 2.0864 53.7041 2.14386C53.7007 2.16166 56.5416 1.77965 56.8263 1.72517C56.5799 1.75381 56.3353 1.78218 56.0924 1.81027C56.5861 1.75578 57.1792 1.62801 57.2282 1.68486C59.0659 1.42787 60.8992 1.17049 62.7384 0.911753C63.0662 0.870139 62.8917 0.93623 63.4295 0.847077C63.2881 0.854307 63.1469 0.861494 63.0061 0.868634C63.2833 0.838037 64.5101 0.679739 64.7084 0.642753C64.734 0.637973 64.765 0.596385 65.0695 0.549426C65.3402 0.507701 65.3879 0.528663 65.534 0.512991C65.6567 0.49975 65.793 0.472856 65.8296 0.469137C65.8576 0.466335 65.8708 0.481455 65.9378 0.474786C66.1494 0.453535 65.9721 0.431116 66.1888 0.454969C66.1382 0.464342 66.0876 0.473711 66.0371 0.483075C66.292 0.454379 66.6435 0.4288 66.2704 0.494786C66.2063 0.506129 66.2593 0.482049 66.2113 0.488982C64.3285 0.762748 65.8391 0.577585 66.493 0.457967C66.6669 0.457342 67.6125 0.306402 67.6454 0.306471C67.6903 0.306969 67.5304 0.349484 67.746 0.335282C67.7927 0.332134 69.0581 0.136344 68.606 0.233832C68.512 0.254051 67.9047 0.334439 67.7567 0.356683C68.1098 0.357578 68.9074 0.168706 68.9996 0.157321C69.3679 0.112365 68.3 0.302839 69.1283 0.189606C69.764 0.102702 69.1629 0.154722 69.4051 0.105114C69.5409 0.0772887 70.2671 0.0107545 70.24 -0.034593C70.486 -0.0752688 70.3453 -0.0289319 70.376 -0.0314789C70.4059 -0.0341388 70.8895 -0.118511 71.0489 -0.131098C71.0683 -0.132591 71.0116 -0.0988312 71.0317 -0.0996297C71.0712 -0.101727 71.5379 -0.174059 71.5565 -0.178917C71.5683 -0.182116 71.4535 -0.188 71.4986 -0.199933C71.5511 -0.21376 72.0027 -0.273519 72.0267 -0.283387C72.0604 -0.297923 71.5048 -0.211521 71.594 -0.249435C71.8512 -0.280162 72.2674 -0.356834 72.4334 -0.400914C72.3927 -0.389289 72.1445 -0.352707 72.0576 -0.342231C72.0934 -0.384095 72.6268 -0.460416 72.4486 -0.405691C72.5623 -0.437675 72.482 -0.434383 72.5452 -0.458214C72.5618 -0.464334 72.7265 -0.488826 72.7574 -0.49963C72.7613 -0.501464 72.5893 -0.490536 72.6223 -0.502744C72.682 -0.524812 73.1824 -0.593863 73.2239 -0.596306C73.3405 -0.603086 72.9344 -0.532472 72.9026 -0.512412C72.8981 -0.509384 73.2492 -0.529615 73.2549 -0.527751C73.2792 -0.502503 72.8903 -0.467212 72.9381 -0.448211C73.0343 -0.456597 73.1305 -0.464988 73.2268 -0.473381C72.8619 -0.394613 72.1806 -0.309964 72.0086 -0.255375C72.5529 -0.342647 73.1237 -0.423808 73.1322 -0.357878C73.1357 -0.330116 72.9026 -0.279963 72.9128 -0.274232C72.9511 -0.254023 73.2741 -0.328491 73.2863 -0.328895C73.2965 -0.328791 73.3012 -0.327949 73.3014 -0.326494C73.3014 -0.326493 73.3014 -0.326492 73.3014 -0.326492C73.3035 -0.311725 72.8391 -0.233986 72.8168 -0.223898C72.7793 -0.206283 72.9937 -0.186876 72.995 -0.175933C72.988 -0.1727 72.6581 -0.113273 72.7727 -0.110373C72.8887 -0.107468 73.1792 -0.148875 73.1896 -0.148347C73.2467 -0.144841 72.7403 -0.0611997 72.7262 -0.0522427C72.7187 -0.0476592 72.9944 -0.0658572 73.0032 -0.0609434C73.0109 -0.0558411 72.8055 -0.0127163 72.7267 0.0182347C72.6679 0.0412624 72.8467 0.0266634 72.8159 0.0333873C72.7937 0.0380873 72.3142 0.106902 72.2911 0.112793C72.2566 0.121553 72.3712 0.122432 72.3555 0.129046C72.3333 0.138502 72.1774 0.154676 72.1985 0.15808C72.2146 0.160553 72.8229 0.1329 72.8215 0.149129C72.8184 0.176891 72.1738 0.206869 72.7806 0.227289C72.7848 0.227388 72.9278 0.199132 72.9319 0.199204C73.0237 0.205831 72.566 0.302258 73.1301 0.215674C72.0845 0.400736 73.0051 0.27475 72.8562 0.342204C72.7986 0.368179 72.3927 0.433937 72.3912 0.436803C72.4339 0.453086 72.5611 0.417372 72.6067 0.421796C72.6318 0.424329 72.2712 0.499989 72.3553 0.503278C72.3987 0.504961 72.7848 0.446523 72.801 0.445735C72.9561 0.437997 72.7707 0.480436 72.8058 0.485754C72.8291 0.489352 73.0625 0.456273 73.0688 0.456622C73.079 0.457761 72.766 0.530932 72.7015 0.550109C72.6524 0.564778 72.8424 0.549321 72.8078 0.557607C72.5996 0.607403 72.1442 0.622476 72.5863 0.6296C72.6133 0.630054 72.7766 0.604781 72.7815 0.604935C72.8854 0.61004 72.5845 0.655112 72.533 0.678958C72.4446 0.720011 72.875 0.642231 72.518 0.713559C72.7905 0.692825 72.9409 0.670393 73.2564 0.619786C72.383 0.759979 72.085 0.87619 73.056 0.734491C72.7467 0.777895 72.7869 0.813471 72.6948 0.827458C72.6376 0.836106 72.1839 0.860327 72.4024 0.921138C72.4297 0.928724 72.6996 0.8752 72.6178 0.910582C71.9639 0.998736 72.6061 0.927274 72.6072 0.930243C72.6067 0.984663 71.0037 1.17102 70.73 1.21663C70.4129 1.26948 70.1364 1.35212 70.0669 1.36219C69.8389 1.39503 70.025 1.34649 69.9729 1.34599C69.9199 1.3457 69.2788 1.47966 69.2465 1.48202C69.12 1.49104 69.2435 1.4475 69.2303 1.4481C69.0718 1.45512 68.2065 1.59985 67.9616 1.62909C67.972 1.64432 68.4602 1.57538 68.1595 1.64551C67.8078 1.72743 67.7772 1.65813 67.7674 1.6563C66.1391 1.89131 64.5126 2.12585 62.8845 2.36021C62.9108 2.39566 63.9692 2.21413 63.9958 2.21545C64.1412 2.22517 62.3421 2.48288 62.1211 2.50069C62.2892 2.48505 62.4577 2.46934 62.6268 2.45356C62.3469 2.53878 61.7054 2.57223 61.2945 2.65102C61.162 2.67646 61.4206 2.65679 61.4156 2.65871C61.2678 2.69739 61.026 2.71856 61.2022 2.6698C60.8411 2.74407 60.8881 2.71248 60.6064 2.75097C60.5919 2.75297 60.7154 2.75347 60.4935 2.79278C60.3894 2.81123 59.8351 2.89064 59.7611 2.91712C59.731 2.92813 60.0255 2.95652 60.0511 2.89215C60.6581 2.83483 60.2397 2.83748 60.4746 2.80524C60.511 2.80034 60.4316 2.84561 61.0239 2.7448C60.919 2.82095 60.2293 2.87404 60.115 2.89779C59.8763 2.94718 60.8726 2.83609 61.0499 2.76303C60.972 2.82188 61.1206 2.75933 61.3419 2.72957C61.5844 2.69694 61.4808 2.72598 61.6121 2.70724C61.9713 2.65609 61.8195 2.6442 62.1182 2.63171C61.8178 2.58086 62.6207 2.54724 62.8577 2.53783C62.4791 2.59693 62.1083 2.65489 61.729 2.71404C61.7513 2.71577 61.7736 2.71751 61.7959 2.71924C61.6962 2.73284 61.5967 2.74641 61.4974 2.75994C61.5126 2.75303 61.5278 2.74612 61.5431 2.73921C61.0362 2.8426 60.9075 2.82648 60.865 2.8322C60.3259 2.90542 59.7051 2.99459 59.1639 3.07186C59.0831 3.08339 59.1426 3.10565 58.5442 3.1671C58.354 3.18662 58.5291 3.13768 58.3155 3.17178C58.0578 3.27359 58.0546 3.2222 57.9744 3.23357C57.7439 3.2665 57.6064 3.30222 57.5852 3.30541C57.3042 3.34803 56.8867 3.40487 56.5766 3.45145C56.5708 3.45252 56.7351 3.44908 56.5327 3.47201C56.464 3.47969 55.8105 3.48756 55.2617 3.59333C55.4086 3.57821 55.5511 3.56369 55.6968 3.54872C55.529 3.56461 54.3356 3.75559 54.6315 3.73637C54.8104 3.72492 55.241 3.60881 55.2971 3.65365C54.8951 3.69519 52.7084 4.02867 52.5359 4.04055C52.5119 4.0422 52.6559 4.00472 52.6227 4.00721C52.5961 4.00931 52.094 4.08426 52.0281 4.08696C51.9881 4.08869 52.207 4.04731 52.1883 4.04377C52.1735 4.04148 51.5435 4.12294 51.5106 4.14902C51.6633 4.11892 52.1007 4.06478 51.8751 4.11469C51.8458 4.12108 51.6912 4.129 51.656 4.13681C51.3303 4.20903 52.3129 4.06425 52.4654 4.04286C51.857 4.15619 50.8879 4.26038 50.1784 4.37758C49.8846 4.40088 50.606 4.2903 50.2754 4.32183C49.5872 4.38754 50.0965 4.37162 50.0754 4.37685C49.9076 4.41842 49.3237 4.40335 49.3311 4.47587C49.0827 4.49944 49.16 4.4794 48.8181 4.53665C48.864 4.53536 48.9096 4.5341 48.9556 4.53279C48.5736 4.6287 47.7442 4.63615 47.8029 4.61978C47.9674 4.57511 48.3944 4.55007 48.4308 4.54418C48.4823 4.53578 48.6292 4.44083 49.2204 4.42513C49.4541 4.34252 48.2836 4.52183 48.8154 4.41366C48.4508 4.47028 46.9613 4.64143 46.7565 4.69124C46.7315 4.69753 46.8572 4.73018 46.4835 4.75604C46.3069 4.76815 46.7294 4.70967 46.6479 4.70947C46.5294 4.70982 45.7841 4.80826 44.9373 4.92271C43.917 5.06112 42.7755 5.2163 42.4286 5.2608C42.3866 5.26618 42.4001 5.24902 42.3591 5.25435C42.2339 5.27073 41.7877 5.34956 41.5587 5.3701C42.0299 5.34121 41.1251 5.45404 40.896 5.47636C40.5512 5.51104 40.5638 5.48202 40.4155 5.49257C39.8279 5.53211 38.948 5.69436 38.3865 5.6117C38.393 5.62626 38.3394 5.63162 38.2296 5.62048C38.1671 5.61299 38.1004 5.60552 37.9804 5.57047C37.9224 5.55175 37.85 5.53021 37.7378 5.46253C37.6347 5.40249 37.4726 5.25549 37.4005 5.06552L37.2583 4.69723L37.4736 4.40392C37.7545 4.05634 38.0122 3.92064 38.1763 3.78759C38.4255 3.59853 38.7593 3.32611 38.4123 3.53731C38.8399 3.23919 39.2828 2.94619 39.6764 2.69561C39.7422 2.65388 39.6602 2.7257 39.7727 2.65373C39.7831 2.64695 39.787 2.62418 39.8823 2.56299C40.6686 2.06062 40.3021 2.33013 40.456 2.24803C40.5414 2.20287 40.6046 2.16779 40.6505 2.14092C40.1893 2.42563 39.6589 2.76271 39.5163 2.85391C39.6586 2.80688 40.5389 2.21154 40.808 2.06075C40.8174 2.05548 40.7963 2.09284 40.8057 2.0873C40.8059 2.08718 40.8061 2.08706 40.8063 2.08694C40.9071 2.02733 41.5321 1.63787 41.3899 1.69513C41.3507 1.71125 41.0618 1.88692 40.7185 2.0989C40.8088 2.03832 40.7273 2.06051 40.7431 2.04967C40.9372 1.9177 41.4363 1.64098 41.6109 1.53805C41.651 1.51443 41.64 1.50351 41.6465 1.49951C41.8045 1.40711 41.763 1.48275 41.9009 1.34658C42.2127 1.21896 41.3721 1.67869 41.4479 1.67299C41.5081 1.67037 43.3082 0.546627 43.2769 0.511541C43.2855 0.511488 43.3131 0.50083 43.367 0.474458C43.4282 0.444561 43.5852 0.348626 43.7366 0.252033C43.8793 0.161326 44.0074 0.0717282 44.0425 0.0428066C44.0543 0.0328171 44.0256 0.00290817 44.0416 -0.00864425C44.0554 -0.0187837 44.2304 -0.129482 44.3091 -0.198266C44.3231 -0.204984 44.331 -0.236603 44.2706 -0.126991C44.2489 -0.076997 44.1645 0.0877299 44.2488 0.34503C44.3448 0.595063 44.4952 0.661265 44.5446 0.690508C44.722 0.758245 44.591 0.712541 44.5655 0.726096C44.6078 0.729657 44.6572 0.744502 44.6079 0.735175C44.5811 0.717784 44.5117 0.7459 44.3238 0.531093C44.2327 0.422129 44.1765 0.216124 44.19 0.0927415C44.1994 -0.0390482 44.2322 -0.102765 44.2498 -0.142278C44.2269 -0.0919721 44.1499 0.055564 44.2072 0.298094C44.2706 0.542354 44.4392 0.659854 44.4949 0.693069C44.6275 0.764947 44.6227 0.744403 44.626 0.749432C44.6191 0.748104 44.5689 0.744393 44.5342 0.744353C44.4581 0.74366 44.4073 0.747421 44.391 0.749953C44.3551 0.755813 44.4584 0.757396 44.5544 0.767606C44.5643 0.768157 44.5729 0.770203 44.5804 0.770881C44.6101 0.774363 44.6402 0.783943 44.6052 0.777952C44.5842 0.771162 44.5504 0.771749 44.4439 0.703081C44.3452 0.654156 44.14 0.388966 44.1476 0.155215C44.1812 -0.261909 44.259 -0.202593 44.2592 -0.240724C44.2701 -0.256548 44.2663 -0.253079 44.2664 -0.254573C44.2612 -0.24885 44.278 -0.283675 44.2212 -0.20042C44.2056 -0.172621 44.1814 -0.138924 44.1533 -0.0365517C44.1271 0.0511146 44.1088 0.270269 44.2109 0.462314C44.451 0.837789 44.5858 0.775611 44.603 0.801482C44.6544 0.805115 44.3625 0.793722 44.2153 0.803048C44.0421 0.808998 43.9323 0.811687 44.0238 0.790851C44.0375 0.787989 44.1238 0.782127 44.2139 0.777919C44.3891 0.769024 44.5563 0.771383 44.374 0.755875C44.3561 0.754583 44.2925 0.756447 44.213 0.761417C44.0793 0.769372 43.9082 0.786761 43.8931 0.786269C43.8169 0.783248 44.0201 0.751367 44.2111 0.727993C44.4024 0.703853 44.5537 0.695196 44.5099 0.680418C44.4284 0.691069 44.3236 0.697883 44.2098 0.705384C44.0719 0.714408 43.9228 0.724118 43.7814 0.741546C43.6672 0.755777 43.6361 0.779999 43.6233 0.781665C43.4049 0.810626 43.5256 0.776012 43.4533 0.784541C43.4124 0.788722 42.9867 0.887061 43.0598 0.814619C41.6202 1.0549 42.6749 0.90277 43.5456 0.800318C43.2746 0.851991 42.7266 0.911935 42.4806 0.951492C42.3931 0.965465 42.4431 0.979786 42.2988 1.00406C41.9897 1.05362 40.515 1.2477 40.1305 1.30154C40.3622 1.25884 40.2915 1.24633 40.1111 1.27536C39.9281 1.30483 40.0868 1.31166 40.0515 1.32037C40.0084 1.33017 39.1592 1.44581 39.0136 1.47251C39.6581 1.36192 39.5089 1.36168 38.9609 1.44385C39.0374 1.42536 39.1151 1.40669 39.195 1.38771C38.8782 1.44583 38.1941 1.51677 38.0132 1.55554C37.9848 1.56166 38.0908 1.56462 38.0748 1.56806C37.9166 1.60094 37.3586 1.66827 37.3342 1.67877C37.3136 1.68752 37.5511 1.66669 37.4652 1.68817C37.4498 1.69227 37.2094 1.70354 36.9922 1.74406C36.9104 1.75928 36.9627 1.7695 36.9421 1.77379C36.7695 1.80973 36.8683 1.76319 36.5467 1.81867C36.3209 1.85783 36.14 1.91659 35.8222 1.95658C36.8909 1.82713 35.9904 1.95255 35.5529 2.03322C35.4829 2.04613 35.5424 2.07017 35.1221 2.12017C36.01 1.91971 34.8613 2.12929 34.6207 2.16666C34.6078 2.1685 34.6003 2.14761 34.4846 2.16554C34.4747 2.16712 34.4914 2.17939 34.3832 2.19761C33.3566 2.37061 34.0121 2.2502 33.8147 2.26669C33.7636 2.27093 33.557 2.31005 33.3694 2.34541C33.2566 2.36682 33.1517 2.38668 33.1 2.39505C33.0692 2.39998 33.0813 2.38258 32.9616 2.40212C32.7489 2.43689 32.5595 2.48336 32.4228 2.50631C32.4064 2.50899 32.4033 2.48503 32.1388 2.53484C32.0643 2.54887 31.9811 2.57073 32.0889 2.56067C32.4071 2.53106 32.9777 2.41045 33.3715 2.35868C33.4173 2.35259 33.4609 2.34738 33.5016 2.34326C33.6506 2.32819 33.5521 2.34915 33.3749 2.38058C33.1259 2.42499 32.7025 2.49274 32.6657 2.49863C32.6437 2.5022 32.8681 2.45454 32.6378 2.4886C32.4493 2.51642 32.1005 2.61388 31.8098 2.65073C31.7884 2.65344 31.5547 2.65467 31.5647 2.651C31.5748 2.64788 31.9224 2.58504 31.8699 2.583C31.864 2.58276 31.6424 2.61811 31.6117 2.61525C31.5747 2.61173 31.4639 2.53716 31.4155 2.54252C31.2912 2.55651 31.3748 2.56427 31.2945 2.57553C31.1171 2.60056 30.5307 2.66628 30.5133 2.70098C30.6119 2.68724 30.71 2.67359 30.8075 2.66003C30.2646 2.74939 30.4972 2.7261 30.4212 2.74415C30.339 2.76365 30.3553 2.733 30.1733 2.75922C30.1368 2.76444 29.3671 2.89239 29.3822 2.90178C29.8074 2.81557 29.6537 2.87465 29.6737 2.87209C29.7488 2.86244 29.8409 2.82837 29.9403 2.81299C30.6354 2.7058 29.9403 2.84676 30.1053 2.82848C30.1624 2.82208 30.2708 2.78827 30.2967 2.78502C30.3768 2.77507 30.3814 2.79609 30.4341 2.78597C30.5568 2.76243 30.4081 2.75524 30.4175 2.75214C30.5258 2.7157 30.9563 2.67141 30.6956 2.74623C30.8572 2.73269 30.8694 2.69006 30.9973 2.68605C31.2514 2.678 30.8774 2.729 30.7757 2.75048C30.4118 2.82747 30.2969 2.83006 29.7806 2.91731C29.5934 2.94889 29.3704 3.00405 29.2865 3.01844C29.2336 3.02752 28.7056 3.04253 28.7059 3.15014C28.4987 3.17261 28.1806 3.15218 27.9716 3.1886C27.7853 3.22115 27.8505 3.24889 27.8333 3.25309C27.8066 3.25964 27.5798 3.29265 27.5064 3.3097C27.419 3.32994 27.4655 3.33709 27.3257 3.36522C26.9768 3.43535 26.9787 3.39617 26.9422 3.39944C26.5139 3.43828 26.7102 3.4624 26.6173 3.48159C26.5339 3.4989 25.3149 3.67134 25.0603 3.72582C25.1638 3.70158 25.2669 3.6774 25.3696 3.65329C25.18 3.65919 24.9872 3.72939 24.9769 3.68753C24.9478 3.76236 24.5596 3.77714 24.4443 3.79729C24.399 3.80524 24.4045 3.81634 24.3476 3.8259C24.1249 3.8634 23.6207 3.93406 23.5025 3.95893C22.9853 4.0673 24.3251 3.89768 24.4314 3.8834C24.2196 3.91629 23.0345 4.12049 23.5854 4.06663C23.6705 4.05831 23.8143 4.00402 23.8611 3.99535C24.1835 3.93599 23.9333 4.00393 23.9591 4.00251C24.0031 3.99984 24.2115 3.93948 24.2678 3.93377C24.2865 3.93184 24.1708 3.97572 24.4771 3.92755C24.3304 3.97559 23.4651 4.09307 23.3537 4.11659C23.3133 4.12508 23.5758 4.13614 22.8272 4.20391C22.8365 4.20734 22.8457 4.21078 22.8549 4.21421C22.4497 4.28069 22.0327 4.34906 21.6258 4.4158C21.6685 4.39772 21.8941 4.33913 21.6062 4.38976C21.4401 4.41897 21.5672 4.4239 21.5522 4.42703C21.4026 4.45772 18.7471 4.872 18.2339 4.95655C18.06 4.98514 17.5718 5.08311 17.5361 5.08917C17.3168 5.12611 16.5234 5.23929 16.3682 5.26686C16.2708 5.28421 16.3669 5.28993 16.2795 5.30287C16.1981 5.31488 16.2791 5.28166 16.2548 5.28467C16.0541 5.30926 14.536 5.57773 14.1701 5.61684C14.393 5.58708 15.4877 5.37211 15.4636 5.36161C15.4578 5.36057 15.1887 5.38796 15.1347 5.4041C15.041 5.40142 14.7361 5.50358 14.5635 5.52056C14.5439 5.52249 14.6156 5.481 14.3092 5.52435C14.2036 5.53931 13.9346 5.60559 13.6539 5.62404C13.2526 5.70058 11.1482 5.9969 11.0069 6.05172C11.0029 6.05405 11.3013 6.01763 11.1029 6.0625C10.8391 6.12215 11.0689 6.02618 10.7579 6.07062C10.7118 6.07719 9.85044 6.22045 9.82219 6.22863C9.56566 6.30282 10.3227 6.19567 10.3124 6.20119C10.288 6.21483 9.6615 6.32057 9.63567 6.32238C9.61099 6.32392 10.1153 6.19942 9.50416 6.31355C9.57521 6.3075 9.64573 6.30154 9.7173 6.29541C9.43039 6.3514 9.39855 6.32594 9.32836 6.33526C9.11034 6.3641 8.88248 6.44679 8.52441 6.44657C8.42972 6.44646 8.58039 6.40557 8.56847 6.40519C8.45398 6.40297 8.32236 6.47868 8.14972 6.46537C8.13666 6.46441 8.51983 6.37888 7.84357 6.4866C7.89076 6.48299 7.93793 6.47939 7.98508 6.47579C7.89155 6.49943 7.20536 6.61399 7.11391 6.6265C6.84407 6.66347 7.07427 6.59868 6.80437 6.64506C6.98404 6.65493 6.16155 6.79105 6.20355 6.7512C6.09471 6.81018 5.39188 6.89009 5.06234 6.94163C4.85439 6.97418 4.43519 7.05917 4.3688 7.06763C4.28814 7.07788 4.30812 7.04629 4.16218 7.06323C4.12065 7.06805 3.6919 7.15721 3.3091 7.18883C3.23486 7.19499 3.07326 7.17257 3.20777 7.13909C3.43798 7.08179 3.88543 7.04928 3.87556 7.02238C3.86388 6.99379 3.27234 7.10619 3.11152 7.12785C2.36924 7.22779 2.79117 7.12816 2.77065 7.12162C2.71758 7.10626 2.31368 7.17139 2.29658 7.17197C2.2253 7.17382 2.5084 7.10985 2.51051 7.09497C2.51274 7.07569 2.11832 7.10441 2.20579 7.08409C2.33095 7.05508 2.69328 7.02579 2.71581 7.02084C3.00839 6.95584 2.59665 6.97775 2.48163 6.9746C2.44676 6.97355 2.57992 6.94146 2.55156 6.94405C2.11898 6.98359 2.47088 7.01836 2.18534 7.0578C1.93057 7.09301 2.25282 7.01291 2.24287 7.01291C2.23007 7.01321 1.92621 7.06008 1.87707 7.05774C1.85295 7.0565 2.63316 6.87624 2.59656 6.85702C2.34531 6.90259 2.09473 6.94805 1.84366 6.9936C1.81885 6.96488 2.18479 6.9306 2.2217 6.92135C2.29605 6.90273 2.08323 6.92012 2.09064 6.90861C2.09447 6.90143 2.33759 6.83923 2.11315 6.86534C2.03601 6.8743 1.87877 6.92228 1.59593 6.94396C2.56276 6.75995 1.8867 6.84935 1.85628 6.84263C1.82643 6.83581 2.28596 6.73532 1.72377 6.82976C1.68947 6.77164 1.73279 6.80822 1.89101 6.77182C2.08479 6.7272 1.62881 6.77894 2.34721 6.68031C2.30191 6.65776 1.72668 6.75156 1.69579 6.75411C1.66914 6.75621 1.79483 6.72153 1.74843 6.72397C1.19972 6.75391 1.57454 6.72043 1.41249 6.70953C1.39804 6.70855 0.885794 6.77658 1.27333 6.70946C1.97957 6.58716 2.28149 6.58121 2.3863 6.47432C1.85735 6.51946 1.2319 6.67737 1.07309 6.70368C0.829876 6.74387 1.07919 6.68573 1.04839 6.68548C1.03772 6.68552 0.82817 6.72044 0.825123 6.71947C0.664728 6.67625 1.75919 6.56943 2.09835 6.50341C2.00533 6.50793 1.91229 6.51246 1.81925 6.51699C1.94325 6.49681 2.06723 6.47664 2.19118 6.45647C1.59706 6.53047 2.16917 6.45214 2.30778 6.37434C2.33891 6.35687 1.95411 6.43967 2.39148 6.33517C2.06364 6.37939 2.16608 6.35169 1.87275 6.41415C1.87693 6.39115 2.5384 6.26053 2.79939 6.20747C1.86748 6.33093 2.40973 6.32638 1.60111 6.41196C1.45671 6.46262 1.8386 6.39636 1.80809 6.40579C1.6987 6.43963 1.43211 6.45607 1.12429 6.56263C1.07421 6.58005 1.29686 6.57361 0.97385 6.62369C0.938119 6.62919 0.728559 6.63777 0.731129 6.63556C0.75538 6.61225 0.960065 6.58691 0.967203 6.57765C0.973897 6.5689 0.747522 6.60961 0.746404 6.60766C0.735641 6.58502 0.934439 6.56838 0.904719 6.56549C0.840523 6.55914 0.0154953 6.63823 1.08397 6.48326C0.202797 6.65127 0.974708 6.52758 1.31804 6.46227C1.40561 6.44566 1.42563 6.42792 1.55019 6.40301C1.71041 6.37093 1.90015 6.34767 1.98313 6.33178C2.07234 6.31461 1.55746 6.36229 2.29599 6.25483C1.91583 6.28122 1.2583 6.42251 0.88617 6.45781C0.135123 6.52899 1.39535 6.31768 1.52628 6.29211C1.56112 6.28528 1.44061 6.28484 1.46377 6.27994C1.50174 6.27205 2.21933 6.16674 2.28731 6.13965C2.35518 6.11258 2.02521 6.18217 2.00045 6.16918C1.98355 6.16047 2.84472 6.00296 2.37552 6.06996C2.05243 6.11611 1.46535 6.25554 1.35751 6.22346C1.83125 6.14386 2.30415 6.0644 2.77809 5.98477C2.5156 6.00786 2.25296 6.03098 1.99074 6.05403C2.52156 5.96347 2.9858 5.91064 3.48637 5.80401C2.26325 5.9389 3.87304 5.69443 3.89013 5.68439C3.89547 5.67917 3.4092 5.70791 3.33125 5.71142C3.75232 5.62554 5.03739 5.41154 4.27544 5.47278C4.41424 5.46425 4.73946 5.37885 4.73499 5.37703C4.6886 5.35782 3.97007 5.48961 4.0839 5.44744C4.21601 5.3985 4.41301 5.40492 4.62217 5.36856C5.69827 5.18129 5.37874 5.09335 6.4638 4.94238C6.44155 4.94099 6.4193 4.93959 6.39704 4.93819C7.57196 4.7588 8.74733 4.57935 9.92297 4.39988C10.3751 4.28542 11.592 4.06569 12.1955 3.97424C12.3173 3.95574 12.9112 3.88339 12.9582 3.87979C13.0422 3.87389 12.5867 3.9493 12.7946 3.9302C12.8391 3.926 13.8464 3.77488 13.7701 3.76332C13.6575 3.77849 13.3071 3.84624 13.2483 3.85001C12.8367 3.87567 15.9413 3.41301 16.0904 3.37322C16.0209 3.37658 15.9513 3.37996 15.8816 3.38335C16.0771 3.35601 16.2725 3.32868 16.4698 3.30105ZM7.78228 6.59068C7.66882 6.63257 7.37079 6.66219 7.19861 6.69632C6.96054 6.74362 6.56661 6.89808 6.72805 6.78046C7.07928 6.71723 7.4303 6.65403 7.78228 6.59068ZM12.9398 5.80432C12.7019 5.82942 12.877 5.75021 13.0734 5.74026C13.0951 5.73922 13.2612 5.77032 12.9398 5.80432ZM10.458 6.17539C10.4679 6.17314 10.672 6.14198 10.6792 6.14164C10.8652 6.13259 10.2498 6.22645 10.458 6.17539ZM22.4267 4.24314C22.1665 4.28675 22.3627 4.30219 22.5213 4.25777C22.5312 4.25497 22.4438 4.24031 22.4267 4.24314ZM22.2412 4.27143C22.032 4.26293 21.6349 4.41078 21.9593 4.35063C21.991 4.34473 22.251 4.2719 22.2412 4.27143ZM12.0938 5.91871C12.118 5.89884 12.3637 5.86742 12.4684 5.85457C12.4679 5.86927 12.196 5.90063 12.0938 5.91871ZM18.2766 4.92948C18.2863 4.91535 17.4345 5.05166 17.3818 5.07664C17.5116 5.04894 18.27 4.94183 18.2766 4.92948ZM20.4475 4.56624C20.4259 4.5675 20.1335 4.61733 20.1437 4.62683C20.2893 4.61821 20.5455 4.56048 20.4475 4.56624ZM24.7666 3.87993C24.7831 3.87451 24.5494 3.84099 25.0796 3.80322C25.1575 3.79765 24.8859 3.85928 24.9135 3.85743C24.9716 3.85314 25.0172 3.84821 25.0535 3.84284C24.8082 3.88769 24.5631 3.92941 24.5371 3.92927C24.4203 3.9276 24.7601 3.88213 24.7666 3.87993ZM27.0279 3.4679C27.0766 3.44864 27.3958 3.40409 27.4681 3.39736C27.4806 3.39627 27.4316 3.43435 27.5733 3.40957C27.6874 3.38958 27.5104 3.38666 27.736 3.3558C27.9657 3.32431 27.6634 3.39444 27.6834 3.39283C27.7111 3.3905 28.0619 3.32087 28.0533 3.34027C28.0486 3.35439 27.6651 3.40624 27.5762 3.42321C27.4589 3.44549 27.6055 3.44447 27.4073 3.47117C27.2825 3.48801 27.3453 3.43886 27.3188 3.4411C27.2971 3.44295 26.8624 3.53455 27.0286 3.46791C27.0284 3.46791 27.0282 3.4679 27.0279 3.4679ZM25.1191 3.83069C25.101 3.83489 25.0796 3.83899 25.0535 3.84284C25.0755 3.83881 25.0974 3.83471 25.1191 3.83069ZM8.46191 6.46519C8.58636 6.45743 8.22497 6.53051 8.08441 6.53709C8.08011 6.52502 8.44218 6.46645 8.46191 6.46519ZM25.3391 3.76382C25.6991 3.71641 25.4387 3.77129 25.1191 3.83069C25.2198 3.8073 25.2178 3.77982 25.3391 3.76382ZM15.1347 5.4041C15.1503 5.40454 15.1606 5.40746 15.163 5.41456C15.122 5.41291 15.1177 5.40919 15.1347 5.4041ZM15.9759 5.28348C16.2597 5.21548 15.6759 5.30938 15.6818 5.32476C15.6846 5.33047 15.9646 5.28618 15.9759 5.28348ZM22.7598 4.19238C22.7332 4.19438 23.1287 4.06266 22.547 4.20684C22.8634 4.16461 22.5321 4.2248 22.5379 4.22991C22.5531 4.2448 23.0811 4.14417 23.2016 4.13249C23.2903 4.0874 22.8448 4.18621 22.7605 4.19228C22.7602 4.19231 22.76 4.19235 22.7598 4.19238ZM31.1159 2.83584C31.0471 2.86491 30.8209 2.89492 30.6658 2.91843C30.7356 2.88922 30.9634 2.85895 31.1159 2.83584ZM56.3383 3.50549C55.278 3.67319 55.1323 3.6201 56.1067 3.51061C56.1266 3.50839 56.4015 3.48901 56.3383 3.50549ZM47.2344 4.76706C47.1287 4.7495 47.4643 4.69809 47.679 4.68165C47.7283 4.67783 47.9147 4.68459 47.708 4.71955C47.7081 4.6806 47.3917 4.70944 47.2344 4.76706ZM25.5386 3.71147C25.6387 3.67406 25.9633 3.63778 26.135 3.61372C26.0335 3.64754 25.6878 3.69449 25.5386 3.71147ZM52.8497 3.96218C52.7393 3.97536 52.6665 4.01362 52.6863 4.01314C52.7755 4.01122 52.9778 3.95999 52.8497 3.96218ZM24.4982 3.87352C24.4825 3.86317 24.902 3.78411 24.9395 3.80992C24.8455 3.82256 24.5109 3.87957 24.4982 3.87352ZM30.8263 2.87211C30.7609 2.87595 31.0944 2.81139 31.2037 2.80054C31.195 2.81559 30.8705 2.86934 30.8263 2.87211ZM51.0526 4.22506C50.9506 4.23698 50.6996 4.27148 50.6738 4.28641C50.6409 4.30517 51.0082 4.24876 51.0526 4.22506ZM69.6585 1.54173C69.6716 1.54492 69.291 1.63634 69.1172 1.65209C68.7879 1.68176 69.6445 1.54016 69.6585 1.54173ZM53.9043 3.79848C54.2231 3.77988 53.8695 3.80425 53.8873 3.82973C54.0982 3.80086 54.6317 3.72653 54.2618 3.75148C54.1897 3.75637 54.0031 3.78629 53.9043 3.79848ZM53.6138 3.83026C53.5824 3.84379 53.3557 3.9045 53.5542 3.87434C53.6452 3.86046 53.7852 3.80885 53.6138 3.83026ZM67.2634 1.89889C66.9769 1.91531 68.2754 1.74179 68.3127 1.74076C68.3327 1.74018 68.3458 1.74044 68.3534 1.74119C68.3997 1.72665 68.6441 1.69007 68.6752 1.70547C68.6016 1.71443 68.4017 1.74494 68.3782 1.74612C68.3681 1.74664 68.3605 1.74685 68.3552 1.74672C68.2727 1.77586 67.3171 1.89588 67.2634 1.89889ZM65.1131 2.18257C65.4304 2.10038 65.4967 2.15305 65.4691 2.15903C65.1211 2.23452 65.3439 2.1566 65.3328 2.15605C65.3077 2.15609 65.0613 2.21278 65.1142 2.18242C65.1138 2.18247 65.1135 2.18252 65.1131 2.18257ZM66.8216 1.95221C66.8347 1.94951 67.1073 1.91223 67.1186 1.91159C67.3444 1.90001 66.5738 2.00551 66.8216 1.95221ZM28.7303 3.15394C28.9265 3.129 28.7388 3.18172 28.6069 3.19441C28.596 3.19533 28.5566 3.17603 28.7303 3.15394ZM53.4585 3.85843C53.4102 3.861 52.2568 4.00774 52.3296 4.03195C52.4296 4.01385 53.741 3.84611 53.4585 3.85843ZM44.829 5.04954C45.0372 5.02182 44.8136 5.08447 44.7034 5.08709C44.6623 5.08809 44.7766 5.05654 44.829 5.04954ZM23.9164 3.93636C23.7089 3.98732 23.7423 3.92177 23.9288 3.91277C23.9361 3.91241 23.9247 3.93435 23.9164 3.93636ZM46.4586 4.84705C45.7659 4.96142 45.9087 4.83896 46.8313 4.74726C46.8037 4.75565 46.7768 4.76394 46.7486 4.77241C47.7975 4.64358 46.8235 4.76951 46.5616 4.81114C46.4631 4.82682 46.5481 4.83242 46.4593 4.84708C46.4591 4.84707 46.4588 4.84706 46.4586 4.84705ZM43.7558 5.19045C43.0663 5.20791 44.3729 5.08381 44.7373 5.02477C44.3867 5.10208 43.9122 5.1606 44.5544 5.10594C43.622 5.23619 44.0112 5.15494 43.9714 5.15791C43.9299 5.16069 43.7852 5.18973 43.7558 5.19045ZM45.5446 4.95045C45.5818 4.9433 45.8757 4.91828 45.9839 4.90107C45.8354 4.94641 45.2874 4.99988 45.5446 4.95045ZM62.8645 2.52254C62.886 2.49981 62.9457 2.47679 63.1775 2.45085C63.1074 2.47078 62.9611 2.50027 62.8645 2.52254ZM7.54325 6.52519C7.38304 6.54931 7.06472 6.59263 7.16522 6.59731C7.17577 6.59739 7.54457 6.53659 7.54325 6.52519ZM50.1042 4.31512C50.0679 4.31786 49.1911 4.43878 49.498 4.41755C49.5893 4.41138 50.39 4.29649 50.1042 4.31512ZM54.6608 3.6745C54.5882 3.68461 54.2896 3.73069 54.2832 3.73623C54.2659 3.75475 54.6316 3.69402 54.6608 3.6745ZM6.7358 6.63373C6.71459 6.63507 6.22765 6.7163 6.28268 6.71708C6.38737 6.71845 6.80891 6.62911 6.7358 6.63373ZM29.4269 2.99729C29.4681 2.99002 29.5259 3.00222 29.5402 3.0002C29.5761 2.9948 30.3172 2.86902 30.038 2.94075C29.9923 2.95258 28.9182 3.11247 28.777 3.13218C28.7187 3.11209 29.1824 3.06642 29.2913 3.04612C29.3106 3.04247 29.3192 3.01656 29.4265 2.99746C29.4267 2.9974 29.4268 2.99734 29.4269 2.99729ZM64.0712 2.32857C64.1005 2.30575 64.9774 2.16744 64.9711 2.19089C64.6699 2.23697 64.3699 2.28287 64.0712 2.32857ZM63.6237 2.38976C63.4342 2.4038 63.873 2.33643 64.0041 2.32341C64.0071 2.3355 63.6511 2.38775 63.6237 2.38976ZM52.9841 3.84258C52.8967 3.85949 53.1712 3.84782 53.1114 3.86156C53.0728 3.87031 52.875 3.88811 52.814 3.90522C52.7966 3.91038 52.9999 3.90717 53.0579 3.89785C53.1403 3.88473 53.0574 3.87637 53.1475 3.86348C53.4483 3.8205 53.7159 3.79692 53.9956 3.75693C54.0209 3.75327 53.8224 3.76723 54.0386 3.73677C54.0715 3.73212 54.2781 3.72395 54.5357 3.68425C55.0958 3.5393 55.5235 3.54276 56.2492 3.41584C56.2206 3.41376 55.6735 3.4751 55.6425 3.47889C55.0359 3.55446 53.9481 3.70769 53.3136 3.79731C53.1501 3.8204 53.2314 3.82274 53.1612 3.83318C53.1059 3.84139 53.1679 3.80696 52.9841 3.84258ZM7.62585 6.49781C7.54593 6.48486 7.28073 6.54339 7.11098 6.56911C7.17417 6.58221 7.45831 6.51882 7.62585 6.49781ZM59.6769 2.93571C59.5911 2.94898 59.3251 2.97931 59.3044 2.98998C59.2775 3.00391 59.6609 2.95541 59.6769 2.93571ZM33.6343 2.33797C33.6428 2.33592 33.8482 2.30483 33.8557 2.30446C34.0421 2.29559 33.4256 2.38884 33.6343 2.33797ZM38.5451 1.57139C38.6954 1.5449 38.8592 1.51152 38.9124 1.52411C38.8135 1.5362 38.527 1.5887 38.5451 1.57139ZM44.2592 -0.238636C44.3216 -0.248093 44.0192 -0.0371934 43.9338 0.0111417C43.9624 -0.0175005 44.2737 -0.265221 44.2592 -0.238636ZM62.8185 2.44368C63.1077 2.40378 63.0394 2.37234 63.2243 2.36447C63.2545 2.36329 63.3623 2.43369 63.0432 2.44731C62.9854 2.44983 63.2059 2.39777 62.8185 2.44368ZM46.9785 4.72788C47.0481 4.70031 47.2793 4.67381 47.4359 4.65363C47.4035 4.67148 47.0863 4.71178 46.9785 4.72788ZM5.8526 6.75386C5.71456 6.75037 5.09629 6.86783 5.25261 6.85975C5.2749 6.8584 5.76554 6.76677 5.8526 6.75386ZM26.255 3.5153C26.5073 3.45514 25.9775 3.53311 25.8106 3.57924C25.8873 3.56577 26.2383 3.51927 26.255 3.5153ZM43.6632 0.821567C43.678 0.818716 43.9337 0.796348 43.947 0.79681C44.1616 0.79742 43.4257 0.862146 43.6632 0.821567ZM36.9263 1.79098C37.0177 1.7601 37.6613 1.67268 37.8107 1.66595C37.6731 1.71147 36.8081 1.83009 36.9263 1.79098ZM61.6376 2.62477C61.8429 2.59449 62.0391 2.57143 62.2271 2.55159C62.1904 2.57073 61.6609 2.63181 61.6376 2.62477ZM44.5544 0.767606C44.5643 0.768157 44.5729 0.770203 44.5804 0.770881C44.5725 0.769766 44.5638 0.76861 44.5544 0.767606ZM57.0499 3.27116C56.8762 3.29044 56.9158 3.31022 56.9265 3.30947C57.0574 3.29903 57.2467 3.24927 57.0499 3.27116ZM7.42395 6.49216C7.36054 6.47927 7.07577 6.54249 6.9093 6.56356C6.96039 6.57357 7.29 6.51592 7.42395 6.49216ZM43.0243 5.23909C42.8057 5.24272 43.6766 5.10069 43.8716 5.09058C43.8829 5.10466 43.0541 5.23893 43.0243 5.23909ZM25.4559 3.6078C25.4364 3.59289 25.0715 3.67264 25.151 3.66851C25.2017 3.66586 25.4681 3.61706 25.4559 3.6078ZM44.3141 5.04232C44.4015 5.02521 44.5883 5.01795 44.5241 5.03732C44.4418 5.06218 44.2928 5.04674 44.3141 5.04232ZM51.7222 4.0047C51.6845 4.00728 51.2027 4.09355 51.4052 4.08337C51.5458 4.07632 51.5647 4.04768 51.5974 4.04299C51.6351 4.03778 52.4193 3.959 51.7222 4.0047ZM37.4446 4.34587C37.4388 4.3542 37.433 4.36269 37.4271 4.37137L37.1942 4.68869L37.348 5.08713C37.481 5.41516 37.7861 5.55668 37.9014 5.59334C38.0363 5.63894 38.1253 5.6501 38.2052 5.66104C38.3631 5.67992 38.4793 5.68183 38.5908 5.68161C38.5485 5.68631 38.4132 5.69345 38.2296 5.67567C38.1308 5.66379 38.0237 5.65368 37.8538 5.58758C37.6923 5.54201 37.4008 5.28473 37.3454 5.08821L37.191 4.68826L37.4248 4.36974C37.4325 4.35996 37.4392 4.352 37.4446 4.34587ZM26.8722 3.37793C26.8244 3.37822 25.6202 3.56519 26.3092 3.47813C26.3495 3.47299 27.0092 3.37823 26.8722 3.37793ZM62.8185 2.44368C62.7821 2.4487 62.74 2.45387 62.6912 2.45911C62.7396 2.45287 62.7818 2.44803 62.8185 2.44368ZM59.5548 2.90866C59.619 2.88639 59.2855 2.93061 59.1889 2.95138C59.1608 2.97139 59.5457 2.9118 59.5548 2.90866ZM38.6075 5.66344C38.7368 5.65564 38.9566 5.65363 39.1004 5.64315C39.0765 5.65838 38.6703 5.6781 38.6075 5.66344ZM43.6861 0.238061C43.4967 0.349786 43.2694 0.496182 43.2737 0.510835C43.2686 0.511305 43.2583 0.51489 43.242 0.522177C43.2261 0.529356 43.029 0.66058 42.9399 0.709963C42.6337 0.880076 43.3296 0.444846 43.7108 0.211422C43.945 0.0672574 44.0545 0.00723133 43.7262 0.235596C43.6643 0.277748 43.5877 0.329277 43.4948 0.391067C43.5584 0.340255 43.6222 0.289251 43.6861 0.238061ZM36.0507 1.89342C35.9231 1.89534 35.5835 1.97156 35.6736 1.96452C35.7378 1.9593 36.1767 1.89187 36.0507 1.89342ZM40.8219 1.14422C40.7835 1.14668 40.4478 1.20989 40.4402 1.22064C40.6326 1.20156 40.9936 1.13359 40.8219 1.14422ZM35.0963 2.02252C35.0183 2.03208 34.9225 2.07646 34.9319 2.07626C35.014 2.074 35.229 2.01789 35.0963 2.02252ZM62.2121 2.45199C62.0959 2.4603 61.7276 2.53426 61.6494 2.56475C61.6339 2.56325 61.5927 2.5643 61.5177 2.56921C61.5179 2.56918 61.5181 2.56915 61.5184 2.56911C61.4203 2.57551 58.4233 2.99603 60.436 2.74504C60.499 2.7372 60.4105 2.73257 60.6671 2.69887C60.6841 2.69666 60.6945 2.70931 60.7469 2.70248C60.8696 2.68641 61.5067 2.604 61.6349 2.57424C61.6363 2.57665 61.645 2.5779 61.663 2.5776C61.8248 2.57479 62.303 2.44541 62.2121 2.45199ZM41.4924 1.04241C41.4247 1.04701 41.2067 1.0841 41.1882 1.09935C41.2913 1.0901 41.6525 1.03123 41.4924 1.04241ZM26.8264 3.3339C26.6832 3.34637 26.3389 3.42031 26.4456 3.41356C26.5107 3.40951 26.989 3.31988 26.8264 3.3339ZM39.3323 1.37482C40.1316 1.26685 39.5222 1.34445 39.6414 1.30782C39.5358 1.33052 39.4345 1.35259 39.3323 1.37482ZM65.9191 1.96681C65.7907 1.98107 65.936 1.92407 66.0793 1.92306C66.1242 1.92282 65.9911 1.95874 65.9191 1.96681ZM71.6732 1.12741C71.5599 1.11172 72.0938 1.05363 71.8899 1.10496C71.8803 1.10708 71.6812 1.12748 71.6732 1.12741ZM67.6491 1.69367C67.5657 1.72747 67.5096 1.73813 67.2656 1.76785C67.625 1.71 67.288 1.73922 67.6491 1.69367ZM43.2769 0.511541C43.2753 0.51155 43.2739 0.511637 43.2737 0.510835C43.2754 0.510672 43.2764 0.510946 43.2769 0.511541ZM34.3474 2.14642C34.2446 2.14416 33.9607 2.19038 34.048 2.19521C34.0552 2.19579 34.3093 2.1661 34.3474 2.14642ZM61.6494 2.56475C61.6632 2.56608 61.6567 2.56915 61.6349 2.57424C61.6335 2.57197 61.6389 2.56887 61.6494 2.56475ZM35.8463 1.89494C35.8357 1.91041 36.2666 1.84797 36.2828 1.84382C36.5254 1.78175 36.0165 1.8673 35.8463 1.89494ZM24.0081 3.76246C23.9862 3.76738 24.1343 3.77947 24.2191 3.75202C24.2848 3.73073 24.0901 3.74393 24.0081 3.76246ZM68.4757 1.56584C68.6107 1.54643 68.8011 1.51901 68.8386 1.5305C68.7476 1.54102 68.4746 1.57839 68.4757 1.56584ZM71.4621 1.13462C71.3058 1.177 70.9397 1.22966 70.7066 1.25996C70.6983 1.23502 71.3136 1.16217 71.4621 1.13462ZM62.5799 2.40897C62.5685 2.40955 62.2287 2.4505 62.2775 2.46099C62.3484 2.47648 62.6769 2.40457 62.5799 2.40897ZM24.6676 3.6765C24.8159 3.64086 24.4648 3.65956 24.3092 3.71297C24.2298 3.74027 24.6431 3.68243 24.6676 3.6765ZM33.4683 2.26115C33.2674 2.30307 33.7717 2.24138 33.8354 2.21299C33.7443 2.22592 33.5401 2.2462 33.4683 2.26115ZM40.2528 1.18247C39.6177 1.22625 39.9731 1.26856 40.0855 1.24296C40.1016 1.23928 40.2684 1.18133 40.2528 1.18247ZM4.27591 6.89948C4.18803 6.92084 4.52403 6.8939 4.5642 6.86997C4.58903 6.85505 4.33213 6.88584 4.27591 6.89948ZM40.6505 2.14092C40.674 2.12642 40.696 2.11277 40.7185 2.0989C40.7019 2.10998 40.6806 2.12329 40.6505 2.14092ZM31.6464 2.47874C32.0955 2.48224 32.047 2.4324 32.0841 2.42684C32.1681 2.41433 32.3647 2.40339 32.5185 2.37573C32.3428 2.41194 32.1648 2.44854 31.9844 2.48552C32.1189 2.46918 33.1923 2.32324 33.3607 2.29048C33.3748 2.28776 33.3832 2.28575 33.385 2.28458C33.3922 2.2799 33.3812 2.27904 33.3591 2.28066C33.2777 2.28624 33.0338 2.328 33.0243 2.3283C33.0078 2.32875 32.9398 2.29158 32.9034 2.29552C32.8406 2.30252 31.8098 2.46475 31.6464 2.47874ZM38.9416 1.39174C39.0425 1.38183 39.0715 1.39634 39.1199 1.38433C39.136 1.3803 39.1361 1.36219 39.1907 1.34908C39.1056 1.36361 39.0233 1.37772 38.9416 1.39174ZM30.864 2.66986C30.7354 2.66811 31.2969 2.5875 31.3172 2.58677C31.4168 2.58599 30.9654 2.67185 30.864 2.66986ZM35.6322 1.9126C35.6108 1.91466 35.1768 1.97616 35.1839 1.98732C35.2932 1.97944 35.8797 1.88978 35.6322 1.9126ZM39.2586 1.33739C39.4089 1.31631 39.6994 1.28999 39.6625 1.26841C39.6623 1.26844 39.662 1.26848 39.6618 1.26851C39.5242 1.29191 39.3934 1.3143 39.2586 1.33739ZM25.1774 3.53786C24.8884 3.54036 25.0312 3.57255 25.2824 3.54663C25.3548 3.51563 25.2248 3.5374 25.1774 3.53786ZM24.2735 3.64918C24.1933 3.65412 23.3893 3.79054 23.5161 3.79335C23.5606 3.79446 24.0192 3.70088 24.0422 3.69882C24.075 3.69595 23.9306 3.74434 24.1779 3.69998C24.1621 3.69388 24.3007 3.64746 24.2735 3.64918ZM24.9394 3.54789C24.6527 3.56042 24.6033 3.62921 24.8106 3.59642C24.8933 3.58337 24.9803 3.54616 24.9394 3.54789ZM26.0816 3.37153C25.9799 3.38191 25.7085 3.41662 25.5298 3.46529C25.773 3.42835 26.0254 3.38999 26.2717 3.35258C26.2983 3.33686 26.1707 3.36245 26.0809 3.37164C26.0812 3.3716 26.0814 3.37157 26.0816 3.37153ZM73.1214 0.739877C72.8965 0.755022 73.408 0.674748 73.4303 0.675767C73.4967 0.680269 73.2218 0.733103 73.1214 0.739877ZM2.45707 6.63585C2.39428 6.63897 2.35059 6.62327 2.21683 6.65647C2.35577 6.65105 2.49485 6.64561 2.63401 6.64016C2.73414 6.58587 2.52567 6.63251 2.45707 6.63585ZM1.91443 6.58229C1.93355 6.57832 1.81913 6.53761 2.07419 6.53631C2.24659 6.5354 1.33573 6.70649 1.16639 6.70735C1.34703 6.66641 1.74974 6.61611 1.91443 6.58229ZM0.272128 6.58894C0.26085 6.58604 0.607379 6.52391 0.64812 6.52072C0.862084 6.50408 0.333129 6.6044 0.272128 6.58894ZM1.38276 6.42315C1.21792 6.43798 1.57802 6.3732 1.68665 6.36247C1.69881 6.3715 1.40822 6.42076 1.38276 6.42315ZM70.7498 0.229691C70.5673 0.216 70.4214 0.323056 70.6909 0.266905C70.7038 0.264237 70.7576 0.230522 70.7498 0.229691ZM0.602708 6.47679C0.767495 6.46196 0.40753 6.52672 0.298872 6.53746C0.287161 6.52836 0.577631 6.47911 0.602708 6.47679ZM70.6119 0.154337C70.3731 0.159962 70.4694 0.242623 70.4993 0.242213C70.6221 0.23988 71.0315 0.14304 71.1151 0.121588C70.4961 0.225215 70.7244 0.15168 70.6119 0.154337ZM69.537 0.367075C69.3207 0.408522 69.8801 0.347674 69.9829 0.30596C69.8746 0.322845 69.5985 0.355247 69.537 0.367075ZM68.2107 0.527038C68.0937 0.540418 67.7435 0.582544 67.6871 0.605842C67.8149 0.584699 68.1638 0.549414 68.2107 0.527038ZM67.9395 0.52056C67.753 0.526757 67.7175 0.591997 67.9266 0.543999C67.9347 0.542136 67.9464 0.520713 67.9395 0.52056ZM66.9073 0.647367C66.7834 0.641278 66.6542 0.718092 66.8496 0.691559C66.9077 0.683569 66.9205 0.648217 66.9073 0.647367ZM70.3035 0.0948953C70.1303 0.109569 69.915 0.182265 70.2822 0.133971C70.1544 0.158746 70.0263 0.183571 69.898 0.208421C70.3829 0.161976 70.3385 0.110526 70.4771 0.0929657C70.6705 0.0685172 70.662 0.117455 70.6254 0.137718C70.7796 0.086276 71.4518 -0.0110008 71.8394 -0.0724007C71.4962 -0.0352393 70.9393 0.0236885 70.601 0.0646319C70.5045 0.0762797 70.4131 0.102536 70.3309 0.1129C70.1992 0.129446 70.3132 0.0941858 70.3042 0.0947982C70.304 0.0948305 70.3037 0.0948629 70.3035 0.0948953ZM65.5535 0.841201C65.1964 0.865446 65.4279 0.890655 65.6263 0.851708C65.6347 0.849693 65.5624 0.840586 65.5535 0.841201ZM0.107964 6.37752C0.582359 6.3264 0.245381 6.41259 1.22206 6.20759C0.813874 6.30757 1.20305 6.23573 1.12451 6.26233C1.0615 6.28351 0.817457 6.31319 0.961969 6.31259C0.772844 6.31832 -0.0310717 6.45322 -0.0675827 6.45507C-0.0672452 6.45502 -0.0669077 6.45497 -0.0665702 6.45491C-0.08849 6.45606 -0.0434148 6.39386 0.107964 6.37752ZM68.1875 0.377452C68.0598 0.324865 68.0303 0.44174 67.7897 0.417551C67.4938 0.545536 68.6403 0.295154 68.7915 0.345522C67.5303 0.518665 69.6345 0.295654 68.7392 0.316533C69.4698 0.250562 68.9749 0.269235 69.0849 0.239643C69.202 0.208126 69.6136 0.164792 69.5892 0.141882C69.5889 0.141915 69.5887 0.141946 69.5885 0.141979C69.3379 0.17991 69.0894 0.217534 68.838 0.255574C69.0917 0.27607 68.5763 0.333162 68.3964 0.312598C68.3267 0.334221 68.2571 0.35584 68.1875 0.377452ZM69.6126 0.225821C69.5876 0.228122 69.0445 0.314304 69.0814 0.32044C69.1546 0.317193 69.9267 0.197282 69.6126 0.225821ZM72.0091 -0.131747C71.8133 -0.103677 71.5093 -0.0710165 71.4058 -0.0346194C71.6013 -0.0626301 71.9055 -0.0953147 72.0091 -0.131747ZM61.9346 1.31307C61.6884 1.36602 62.4549 1.26129 62.2304 1.27261C62.2192 1.27323 61.9466 1.31053 61.9346 1.31307ZM67.6215 0.469622C67.3648 0.48488 67.4943 0.535267 67.6799 0.490583C67.6906 0.487978 67.6334 0.468904 67.6215 0.469622ZM0.487998 6.30853C0.502345 6.2893 1.18668 6.19212 1.30787 6.17265C1.24139 6.199 0.471662 6.33057 0.487998 6.30853ZM72.3446 -0.24334C71.9467 -0.246836 71.4281 -0.101909 71.3702 -0.0951043C71.3125 -0.08835 71.399 -0.127391 71.3857 -0.1262C71.356 -0.123402 70.7423 -0.0327889 70.7129 -0.0267072C70.6918 -0.022234 70.8081 -0.00162458 70.6831 0.0281427C70.9278 -0.0283116 72.0502 -0.176688 72.1083 -0.189202C72.1529 -0.198931 71.8075 -0.188412 72.344 -0.243242C72.3442 -0.243275 72.3444 -0.243307 72.3446 -0.24334ZM71.2245 -0.0822557C71.3799 -0.0889813 70.9504 -0.02516 70.8454 -0.0158166C70.6121 0.00483736 71.2049 -0.0812944 71.2245 -0.0822557ZM70.1888 0.0524584C70.1399 0.0559927 69.6953 0.11682 69.6603 0.13929C69.8733 0.131229 70.3014 0.0444309 70.1888 0.0524584ZM65.2599 0.764022C65.1451 0.782764 64.8282 0.814907 64.812 0.83248C64.9266 0.813779 65.2439 0.781567 65.2599 0.764022ZM2.79685 5.80723C2.60417 5.82517 3.0452 5.74965 3.17492 5.7351C3.18352 5.74392 2.81329 5.80571 2.79685 5.80723ZM67.558 0.333108C67.4895 0.338343 66.1005 0.549725 65.9081 0.584496C66.0988 0.568611 67.4773 0.371207 67.5386 0.356743C67.5566 0.352466 67.5668 0.332571 67.558 0.333108ZM70.5623 -0.106398C70.6865 -0.146719 70.7735 -0.132343 70.7896 -0.134327C70.9478 -0.153673 71.2741 -0.205726 71.2054 -0.174225C70.9259 -0.142685 70.3149 -0.0262291 70.5623 -0.106398ZM65.147 0.678756C64.6772 0.754612 65.5854 0.647692 65.4637 0.641745C65.4557 0.641468 65.1955 0.67091 65.147 0.678756ZM67.7125 0.304337C67.8149 0.27149 69.2069 0.0867705 69.4292 0.0547707C69.2339 0.11632 69.0706 0.114436 68.8014 0.154903C68.7289 0.165836 68.7502 0.176674 68.7424 0.177817C68.6169 0.196528 68.7087 0.167259 68.6312 0.178165C68.582 0.185147 67.5702 0.350362 67.7125 0.304337ZM70.6328 -0.132094C70.7088 -0.155898 71.576 -0.286266 71.6112 -0.287931C71.876 -0.300641 70.7011 -0.137453 70.6328 -0.132094ZM67.5807 0.29359C67.7253 0.233919 68.4184 0.160193 67.9496 0.24703C67.9046 0.255267 67.7107 0.266336 67.5807 0.29359ZM65.1921 0.635273C65.1686 0.637513 64.6771 0.70038 64.6691 0.71389C64.7427 0.708127 65.4572 0.609737 65.1921 0.635273ZM65.4412 0.557655C65.4294 0.55965 65.5481 0.566397 65.317 0.596607C65.2978 0.599081 65.2579 0.578032 64.9701 0.629202C64.9117 0.639613 64.8234 0.670024 64.8301 0.67016C65.1358 0.668271 66.0359 0.458339 65.4412 0.557655ZM70.6456 -0.155649C70.5972 -0.159992 70.7053 -0.209116 70.8095 -0.207126C70.8542 -0.206223 70.7756 -0.174758 70.6456 -0.155649ZM63.6311 0.848707C63.9148 0.787614 63.0147 0.913023 62.9708 0.924518C63.0009 0.932885 63.6022 0.854843 63.6311 0.848707ZM3.21873 5.5825C3.2185 5.58254 3.21828 5.58257 3.21805 5.58261C3.4586 5.54889 3.31269 5.58912 3.324 5.58785C3.83905 5.53068 3.6977 5.51477 3.77692 5.49761C3.94689 5.4607 3.92658 5.51068 4.21267 5.4457C3.73919 5.54979 4.17238 5.46874 4.18849 5.48281C4.25281 5.54042 3.54668 5.55333 3.31086 5.60515C3.27799 5.61236 3.52629 5.59444 3.44226 5.61399C3.16914 5.6775 2.29523 5.71203 3.21873 5.5825ZM70.8876 -0.221337C70.9972 -0.256996 71.8452 -0.359842 71.6234 -0.311509C71.5877 -0.303743 70.7278 -0.169334 70.8876 -0.221337ZM43.9968 1.80677C43.8304 1.93095 44.2476 1.69349 44.3158 1.63443C44.3499 1.6052 44.0694 1.75265 43.9968 1.80677ZM43.2547 -0.757272C43.0048 -0.725207 42.7541 -0.621578 43.0602 -0.670509C43.0927 -0.675824 43.2842 -0.750838 43.2547 -0.757272ZM43.9021 3.5346C43.6491 3.54252 43.671 3.58718 43.8531 3.5624C43.918 3.55357 43.9101 3.53434 43.9021 3.5346ZM41.4786 3.38747C41.5002 3.37619 41.7515 3.21956 41.7359 3.21636C41.6394 3.26748 41.333 3.46307 41.4786 3.38747ZM43.9814 3.51729C43.8313 3.5458 44.0985 3.54475 44.2749 3.48752C44.1882 3.50189 43.9948 3.51463 43.9814 3.51729ZM67.0446 0.265391C66.9232 0.302434 66.5659 0.347915 66.363 0.38046C66.3369 0.358865 66.9012 0.290626 67.0446 0.265391ZM44.3657 -0.816576C44.0941 -0.793583 44.6822 -0.78811 44.6423 -0.804749C44.6278 -0.809166 44.3725 -0.819157 44.3657 -0.816576ZM52.0451 2.4C51.8807 2.43834 52.4126 2.38356 52.2633 2.37808C52.2558 2.37805 52.054 2.39791 52.0451 2.4ZM54.3541 2.08187C54.2306 2.09431 53.6865 2.17305 53.8998 2.15756C53.9324 2.1552 54.3484 2.09654 54.3541 2.08187ZM3.78826 5.4775C3.71634 5.46286 4.11126 5.40613 4.16828 5.4016C4.19074 5.39992 3.88211 5.49651 3.78826 5.4775ZM42.266 3.74351C42.1312 3.76396 41.7986 3.79945 41.7376 3.82056C41.9032 3.79734 42.3086 3.76531 42.266 3.74351ZM45.1263 1.11791C45.2354 1.04835 45.372 0.965816 45.5442 0.748462C45.6251 0.643547 45.7506 0.432118 45.7545 0.169791C45.745 -0.0825066 45.7066 -0.157801 45.7329 0.0886683C45.7099 0.592987 45.5803 0.610639 45.5472 0.697566C45.5043 0.759036 45.4774 0.790191 45.4645 0.807324C45.4363 0.843141 45.4414 0.841786 45.4404 0.846908C45.4442 0.84678 45.384 0.934237 45.1263 1.11791ZM44.8197 3.37463C44.7866 3.3784 44.7566 3.38563 44.7315 3.39371C44.6757 3.41117 44.643 3.43226 44.6513 3.43227C44.6782 3.43229 44.7076 3.4292 44.7357 3.42443C44.8252 3.40902 44.9001 3.37442 44.8197 3.37463ZM39.2419 4.83211C39.2528 4.84151 39.511 4.65379 39.4712 4.67007C39.4567 4.67519 39.2295 4.82516 39.2419 4.83211ZM62.6466 0.888784C62.4907 0.897312 62.9588 0.816588 63.0994 0.812582C63.1697 0.82579 62.6677 0.887356 62.6466 0.888784ZM47.7246 2.98587C47.7357 2.96186 47.2144 3.04668 47.4228 3.03651C47.4744 3.03406 47.7197 2.99408 47.7246 2.98587ZM52.7448 2.25516C52.3958 2.33142 53.8786 2.14058 53.485 2.16284C53.4607 2.16392 52.7727 2.24897 52.7448 2.25516ZM55.1626 1.92903C55.1021 1.93467 55.121 1.85633 55.3752 1.84935C55.4086 1.84839 55.2578 1.88984 55.2852 1.8905C55.3006 1.89094 55.8489 1.82355 55.8748 1.81808C55.9017 1.81224 55.8663 1.79304 55.8935 1.78643C55.9261 1.77876 56.2618 1.75226 56.4384 1.72731C56.7707 1.68036 56.8049 1.65529 56.8321 1.65135C56.913 1.63968 57.046 1.63504 57.2065 1.61212C58.0212 1.49575 59.2513 1.30276 59.9032 1.25221C59.327 1.3175 58.7877 1.41288 58.2178 1.49992C58.3781 1.43489 57.3873 1.65099 57.9666 1.51965C57.6959 1.56901 55.3601 1.91036 55.1632 1.92894C55.163 1.92897 55.1628 1.929 55.1626 1.92903ZM42.2775 -0.654258C42.4235 -0.700566 41.6556 -0.587914 41.5937 -0.548348C41.6978 -0.559581 42.2552 -0.64874 42.2775 -0.654258ZM44.7285 1.52902C44.696 1.55266 44.6749 1.58261 44.6132 1.63347C44.5561 1.68137 44.465 1.74642 44.2984 1.83631C44.2981 1.83649 44.2978 1.83668 44.2975 1.83686C44.1996 1.88963 44.3002 1.81206 44.2807 1.81919C44.2732 1.82187 43.9681 1.98387 44.2085 1.82836C44.5752 1.59023 44.2633 1.83795 44.4607 1.71408C44.4701 1.70811 44.5314 1.66449 44.6009 1.61394C44.7125 1.53353 44.847 1.4308 44.8312 1.43687C44.8278 1.43855 44.7132 1.52043 44.6914 1.53133C44.6143 1.56992 44.6409 1.53421 44.6303 1.54013C44.6249 1.54323 44.6059 1.55586 44.5764 1.57548C44.4262 1.67634 44.0036 1.96036 43.9197 1.98923C43.8997 1.99615 44.2777 1.75019 44.567 1.56065C44.7419 1.44684 44.8887 1.34559 44.9052 1.33589C44.9322 1.32043 44.9452 1.36405 44.9749 1.34876C44.9861 1.34558 45.412 1.02851 45.5543 0.847265C45.5853 0.812523 45.6086 0.783872 45.6284 0.758033C45.5936 0.79825 45.6132 0.775241 45.6732 0.67701C45.7024 0.623592 45.7473 0.558346 45.7945 0.390737C45.8402 0.249615 45.8579 -0.0988375 45.6937 -0.360735C45.533 -0.620909 45.3661 -0.701158 45.2641 -0.756784C45.1632 -0.806402 45.0965 -0.825901 45.044 -0.841733C44.947 -0.869385 44.9009 -0.877325 44.9084 -0.88045C44.9355 -0.858405 45.0019 -0.941059 45.4478 -0.660018C45.5682 -0.57059 45.7266 -0.396135 45.7975 -0.163969C45.8706 0.0695987 45.8394 0.269632 45.8129 0.376108C45.7482 0.605566 45.6987 0.648278 45.6941 0.664335C45.6843 0.680207 45.6757 0.693072 45.6677 0.704755C45.7054 0.654699 45.5864 0.848093 45.4824 0.94888C45.3747 1.06121 45.2609 1.15371 45.1594 1.23267C44.9582 1.38753 44.7953 1.49724 44.895 1.44652C44.6492 1.62499 44.9096 1.39502 44.7285 1.52902ZM43.5892 2.27588C43.6114 2.25678 43.6336 2.23765 43.6559 2.21848C43.2437 2.48718 42.7479 2.7647 42.2672 3.05754C42.1454 3.13175 42.3003 3.07006 42.1358 3.16131C42.005 3.23374 41.8491 3.29841 41.916 3.25091C41.9329 3.23894 42.2025 3.0946 42.3316 3.01388C42.7154 2.77399 42.6051 2.81312 42.6274 2.79877C42.6525 2.78267 42.9039 2.64881 43.0365 2.5665C43.37 2.35939 43.5141 2.25394 43.9803 1.98596C43.7255 2.16325 43.8878 2.10274 43.5892 2.27588ZM49.9322 2.60992C49.9503 2.59219 50.2663 2.56136 50.3805 2.5431C50.3634 2.56073 50.051 2.59105 49.9322 2.60992ZM18.0054 3.09621C17.9128 3.13596 18.6381 3.02667 18.444 3.03677C18.4001 3.03914 18.097 3.08181 18.0054 3.09621ZM21.2735 2.59125C21.3695 2.56907 20.976 2.61369 20.9794 2.63249C20.9811 2.63842 21.2613 2.59409 21.2735 2.59125ZM38.397 3.99124C38.3687 3.99017 38.5366 4.005 38.5554 4.00435C38.63 4.01723 38.4651 4.02161 38.4077 4.01187C38.3754 4.00669 38.4086 4.0072 38.4435 4.01583C38.4879 4.02694 38.3972 3.99293 38.397 3.99124ZM25.2392 1.92979C24.9038 1.99949 25.9225 1.84469 25.6077 1.87382C25.5898 1.87565 25.2559 1.92634 25.2392 1.92979ZM26.6562 1.70005C26.5728 1.71419 26.2135 1.76314 26.2098 1.77134C26.2045 1.7845 26.6166 1.72744 26.6562 1.70005ZM44.8769 3.27281C44.8304 3.25105 45.3206 3.20605 45.4785 3.18099C45.5236 3.20298 45.04 3.24732 44.8769 3.27281ZM41.8707 3.64555C43.8663 3.36837 43.4428 3.48402 41.7508 3.67414C41.7464 3.6567 41.7412 3.6631 41.8707 3.64555ZM44.4385 3.31439C44.3669 3.34197 44.1442 3.36643 43.985 3.38614C44.0127 3.36998 44.3287 3.33237 44.4385 3.31439ZM17.1331 3.19642C17.2528 3.15456 17.8186 3.09258 17.72 3.11768C17.6973 3.12332 17.0878 3.21617 17.1331 3.19642ZM38.4653 3.97266C38.4047 3.9512 38.9176 3.95139 38.972 3.94921C39.143 3.96552 38.4607 3.97883 38.4653 3.97266ZM47.7272 2.85845C47.836 2.82199 48.1316 2.79199 48.329 2.76481C48.24 2.79549 47.8977 2.83523 47.7272 2.85845ZM46.3186 3.03587C46.3306 3.03341 46.606 2.99755 46.6159 2.99715C46.8416 2.98707 46.0701 3.0876 46.3186 3.03587ZM2.85407 5.43456C2.863 5.43245 3.06835 5.40108 3.07562 5.40073C3.26193 5.39163 2.64555 5.48567 2.85407 5.43456Z" fill="var(--stroke-0, #489ADC)"/>
</svg>
