<svg preserveAspectRatio="none" width="100%" height="100%" overflow="visible" style="display: block;" viewBox="0 0 336.943 383.208" fill="none" xmlns="http://www.w3.org/2000/svg">
<g id="Rectangle 121">
<g filter="url(#filter0_i_762_3199)">
<path d="M24.8056 1.6041H292.565H323.338C329.966 1.6041 335.338 6.97669 335.338 13.6041V369.604C335.338 376.232 329.966 381.604 323.338 381.604H13.6041C6.97669 381.604 1.6041 376.232 1.6041 369.604L1.6041 13.6041C1.6041 6.97669 6.97669 1.6041 13.6041 1.6041H24.8056Z" fill="url(#paint0_linear_762_3199)"/>
</g>
<path d="M24.8056 1.6041H292.565H323.338C329.966 1.6041 335.338 6.97669 335.338 13.6041V369.604C335.338 376.232 329.966 381.604 323.338 381.604H13.6041C6.97669 381.604 1.6041 376.232 1.6041 369.604L1.6041 13.6041C1.6041 6.97669 6.97669 1.6041 13.6041 1.6041H24.8056Z" stroke="var(--stroke-0, #193551)" stroke-width="3.20821"/>
</g>
<defs>
<filter id="filter0_i_762_3199" x="0" y="0" width="338.226" height="384.491" filterUnits="userSpaceOnUse" color-interpolation-filters="sRGB">
<feFlood flood-opacity="0" result="BackgroundImageFix"/>
<feBlend mode="normal" in="SourceGraphic" in2="BackgroundImageFix" result="shape"/>
<feColorMatrix in="SourceAlpha" type="matrix" values="0 0 0 0 0 0 0 0 0 0 0 0 0 0 0 0 0 0 127 0" result="hardAlpha"/>
<feOffset dx="5" dy="5"/>
<feGaussianBlur stdDeviation="0.641641"/>
<feComposite in2="hardAlpha" operator="arithmetic" k2="-1" k3="1"/>
<feColorMatrix type="matrix" values="0 0 0 0 0.8875 0 0 0 0 0.93625 0 0 0 0 1 0 0 0 0.15 0"/>
<feBlend mode="normal" in2="shape" result="effect1_innerShadow_762_3199"/>
</filter>
<linearGradient id="paint0_linear_762_3199" x1="168.471" y1="1.6041" x2="168.471" y2="381.604" gradientUnits="userSpaceOnUse">
<stop stop-color="#074980"/>
<stop offset="1" stop-color="#172743"/>
</linearGradient>
</defs>
</svg>
